<svg width="68" height="76" viewBox="0 0 68 76" fill="none" xmlns="http://www.w3.org/2000/svg">
<path d="M64.3263 67.9682C47.6406 40.519 48.4694 41.8773 48.4296 41.821C48.2854 41.6177 48.0618 41.5151 47.8456 41.5151C47.8441 41.5149 47.843 41.5146 47.8419 41.5146H22.549C22.3169 41.5146 22.099 41.6268 21.963 41.8157L10.9863 57.0964V49.8084C13.0342 49.4614 14.5996 47.6669 14.5996 45.5107V31.7061C14.5996 29.3023 12.6544 27.3467 10.2637 27.3467C9.15396 27.3467 8.14051 27.7684 7.37305 28.4604V26.2568C7.37305 23.2521 4.94174 20.8076 1.95312 20.8076C-1.03549 20.8076 -3.4668 23.2521 -3.4668 26.2568V41.5146C-3.4668 44.2728 -1.41749 46.5574 1.23047 46.9139V67.6709H-2.74414C-3.14334 67.6709 -3.4668 67.9961 -3.4668 68.3975C-3.4668 68.7988 -3.14334 69.124 -2.74414 69.124C0.69975 69.124 60.3224 69.124 63.743 69.124C64.1422 69.124 64.4656 68.7988 64.4656 68.3975C64.4658 68.237 64.4137 68.0885 64.3263 67.9682ZM56.4564 67.6709H48.5645V57.405C50.1764 61.5204 52.8024 65.2465 56.4564 67.6709ZM22.9184 42.9678H46.4987L34.096 61.8584H9.3485L10.3923 60.4053H27.6074C28.0065 60.4053 28.3301 60.0801 28.3301 59.6787C28.3301 59.2774 28.0065 58.9521 27.6074 58.9521H11.4361L22.9184 42.9678ZM10.2637 28.7998C11.8574 28.7998 13.1543 30.1035 13.1543 31.7061V45.5107C13.1543 46.862 12.2309 47.9975 10.9863 48.3214V43.3311C10.9863 42.9297 10.6627 42.6045 10.2637 42.6045C9.86448 42.6045 9.54102 42.9297 9.54102 43.3311V48.3214C8.29631 47.9976 7.37305 46.862 7.37305 45.5107C7.37305 44.116 7.37305 33.0201 7.37305 31.7061C7.37305 30.1035 8.66978 28.7998 10.2637 28.7998ZM-2.02148 41.5146V26.2568C-2.02148 24.0533 -0.238547 22.2607 1.95312 22.2607C4.14465 22.2607 5.92773 24.0533 5.92773 26.2568C5.92773 28.4024 5.92773 39.2016 5.92773 41.5146C5.92773 43.4698 4.52332 45.1005 2.67578 45.4433V33.8857C2.67578 33.4845 2.35218 33.1592 1.95312 33.1592C1.55393 33.1592 1.23047 33.4845 1.23047 33.8857V45.4433C-0.617074 45.1005 -2.02148 43.4698 -2.02148 41.5146ZM2.67578 46.9139C3.95373 46.7418 5.09191 46.1213 5.92773 45.2143V45.5107C5.92773 47.6669 7.49301 49.4615 9.54102 49.8084V59.1084L3.39034 67.6709H2.67578V46.9139ZM8.3047 63.3115H33.1421L30.2799 67.6709H5.17314L8.3047 63.3115ZM47.1191 44.6605V52.3343C45.7426 58.84 42.8179 62.6687 40.6022 64.7366C38.4846 66.713 36.5929 67.5042 36.1537 67.6709H32.0117L47.1191 44.6605ZM39.227 67.6709C42.8824 65.2458 45.5076 61.5197 47.1193 57.405V67.6709H39.227ZM59.5293 67.6709C58.5913 67.3159 51.0568 64.115 48.5645 52.3345V44.8234L62.4516 67.6708H59.5293V67.6709Z" fill="black"/>
<path d="M33.6065 22.9827C33.6156 22.983 33.6249 22.9833 33.6341 22.9833C35.6646 22.9838 47.8355 22.9865 49.8687 22.9869C52.337 22.9869 54.3453 20.968 54.3453 18.4863C54.3453 16.0661 52.4356 14.086 50.0517 13.9893C49.9555 11.5924 47.9859 9.6724 45.5789 9.6724C44.8616 9.6724 44.157 9.84692 43.5261 10.1736C42.5477 8.22945 40.5635 6.97656 38.3393 6.97656C35.1318 6.97656 32.5222 9.60018 32.5222 12.8251C32.5222 13.2658 32.5708 13.7006 32.6674 14.1256C30.7233 14.6229 29.3047 16.3901 29.3047 18.4862C29.3047 20.9142 31.1944 22.8893 33.6065 22.9827ZM33.6385 15.4425C33.8719 15.4316 34.0859 15.3081 34.2124 15.1106C34.3391 14.9132 34.3631 14.6664 34.2767 14.4481C34.0715 13.9296 33.9676 13.3835 33.9676 12.8251C33.9676 10.4014 35.9286 8.42969 38.3393 8.42969C40.2476 8.42969 41.9207 9.65656 42.5028 11.4826C42.6587 11.971 43.2566 12.1481 43.6509 11.8211C44.1914 11.3726 44.8762 11.1254 45.5789 11.1254C47.4279 11.1254 48.8611 12.7875 48.5737 14.6454C48.4986 15.1308 48.9153 15.5507 49.3986 15.4752C51.2453 15.1873 52.9001 16.6244 52.9001 18.486C52.9001 20.1664 51.5404 21.5335 49.8692 21.5335L33.6492 21.5299C32.0223 21.46 30.75 20.1255 30.75 18.486C30.75 16.8548 32.019 15.5177 33.6385 15.4425Z" fill="black"/>
<path d="M52.9004 33.8857C52.9004 35.8889 54.5213 37.5186 56.5137 37.5186C58.506 37.5186 60.127 35.8889 60.127 33.8857C60.127 31.8826 58.506 30.2529 56.5137 30.2529C54.5213 30.2529 52.9004 31.8826 52.9004 33.8857ZM56.5137 31.7061C57.7091 31.7061 58.6816 32.6839 58.6816 33.8857C58.6816 35.0876 57.7091 36.0654 56.5137 36.0654C55.3181 36.0654 54.3457 35.0876 54.3457 33.8857C54.3457 32.6839 55.3183 31.7061 56.5137 31.7061Z" fill="black"/>
<path d="M16.0449 18.6279C19.2327 18.6279 21.8262 16.0204 21.8262 12.8154C21.8262 9.61042 19.2327 7.00293 16.0449 7.00293C12.857 7.00293 10.2637 9.61042 10.2637 12.8154C10.2637 16.0204 12.8571 18.6279 16.0449 18.6279ZM16.0449 8.45605C18.4356 8.45605 20.3809 10.4117 20.3809 12.8154C20.3809 15.2192 18.4356 17.1748 16.0449 17.1748C13.6539 17.1748 11.709 15.2192 11.709 12.8154C11.709 10.4117 13.6539 8.45605 16.0449 8.45605Z" fill="black"/>
<path d="M57.5977 9.18262C58.1963 9.18262 58.6816 8.69468 58.6816 8.09277C58.6816 7.49087 58.1963 7.00293 57.5977 7.00293C56.999 7.00293 56.5137 7.49087 56.5137 8.09277C56.5137 8.69468 56.999 9.18262 57.5977 9.18262Z" fill="black"/>
<path d="M45.3125 30.9795C45.9112 30.9795 46.3965 30.4916 46.3965 29.8896C46.3965 29.2877 45.9112 28.7998 45.3125 28.7998C44.7138 28.7998 44.2285 29.2877 44.2285 29.8896C44.2285 30.4916 44.7138 30.9795 45.3125 30.9795Z" fill="black"/>
<path d="M59.043 48.417C59.6416 48.417 60.127 47.9291 60.127 47.3271C60.127 46.7252 59.6416 46.2373 59.043 46.2373C58.4443 46.2373 57.959 46.7252 57.959 47.3271C57.959 47.9291 58.4443 48.417 59.043 48.417Z" fill="black"/>
<path d="M26.5234 36.0654C27.1221 36.0654 27.6074 35.5775 27.6074 34.9756C27.6074 34.3737 27.1221 33.8857 26.5234 33.8857C25.9248 33.8857 25.4395 34.3737 25.4395 34.9756C25.4395 35.5775 25.9248 36.0654 26.5234 36.0654Z" fill="black"/>
<path d="M27.2461 8.45605C27.8448 8.45605 28.3301 7.96812 28.3301 7.36621C28.3301 6.76431 27.8448 6.27637 27.2461 6.27637C26.6474 6.27637 26.1621 6.76431 26.1621 7.36621C26.1621 7.96812 26.6474 8.45605 27.2461 8.45605Z" fill="black"/>
<path d="M5.20508 14.2686C5.80375 14.2686 6.28906 13.7806 6.28906 13.1787C6.28906 12.5768 5.80375 12.0889 5.20508 12.0889C4.60641 12.0889 4.12109 12.5768 4.12109 13.1787C4.12109 13.7806 4.60641 14.2686 5.20508 14.2686Z" fill="black"/>
</svg>
