<svg width="80" height="54" viewBox="0 0 80 54" fill="none" xmlns="http://www.w3.org/2000/svg">
<path d="M78.5117 1.08225C77.1133 0.343971 73.5586 0.67991 58.3477 9.94945C57.3321 10.5666 56.3165 11.1995 55.3008 11.8323C50.9219 7.25025 43.5978 4.37525 34.5898 3.72285C26.3945 3.1291 18.1168 4.57051 12.9808 7.47675C3.71132 12.7228 -0.804178 20.0117 0.261822 27.9967C1.66802 38.5087 12.5858 48.3718 26.8128 51.9888C30.0081 52.8013 33.5316 53.1723 37.0708 53.1723C47.6688 53.1723 58.3828 49.8285 60.6798 44.9184C61.5314 43.1021 61.6408 40.2818 57.3439 37.1724C54.9572 35.4458 52.1017 35.1841 49.883 35.149C47.5314 35.1099 46.3322 33.7662 46.1877 32.4498C46.051 31.2154 46.7893 29.563 49.3127 28.9536C49.6916 28.8638 50.094 28.7779 50.5158 28.688C54.3205 27.8872 60.0119 26.6646 58.3283 17.192C60.3752 16.1178 62.4181 15.0201 64.383 13.9342C77.61 6.62173 79.391 4.12173 79.391 2.64523C79.391 1.9382 79.0785 1.38353 78.5082 1.08273L78.5117 1.08225ZM50.1917 27.1373C49.7542 27.2271 49.3441 27.3169 48.9417 27.4107C45.6409 28.2037 44.387 30.5982 44.6097 32.6216C44.8324 34.6294 46.5394 36.6802 49.8558 36.731C51.9652 36.7661 54.3949 36.9966 56.4105 38.4537C59.1566 40.4381 60.1097 42.3873 59.2386 44.2428C58.0238 46.8405 53.348 49.2701 47.0316 50.5866C40.3949 51.9694 32.9806 51.9186 27.1996 50.446C13.5866 46.9851 3.15262 37.665 1.82862 27.778C0.852062 20.4772 5.08642 13.755 13.7546 8.84796C18.6335 6.08626 26.5706 4.72296 34.4696 5.29326C42.8016 5.89482 49.8216 8.57846 53.9186 12.6839C46.5866 17.305 39.7306 21.9612 36.8526 23.9139C36.3761 24.2381 36.0206 24.4803 35.7862 24.6365C35.4425 24.5037 35.0831 24.41 34.7081 24.406C32.9581 24.3865 31.3643 25.3865 29.9659 27.3905C29.6808 27.7967 28.6534 28.4374 27.63 28.703C27.341 28.7772 27.1183 29.0076 27.0558 29.2967C26.9894 29.5858 27.0949 29.8905 27.3214 30.078C28.5909 31.1327 30.5441 31.7341 32.4464 31.7341C33.1496 31.7341 33.8487 31.6521 34.5011 31.4802C36.0949 31.0662 37.2316 30.1599 37.7003 28.9333C37.8878 28.449 37.9464 27.9411 37.9034 27.4489C38.7199 27.0349 39.9815 26.4137 41.5089 25.6637C45.3761 23.7614 51.0519 20.9684 56.8449 17.9528C58.0207 25.4606 54.0441 26.3161 50.1769 27.1286L50.1917 27.1373ZM36.0437 26.7583C36.3718 27.2427 36.4422 27.8325 36.2351 28.3755C35.8718 29.3209 34.8835 29.7544 34.114 29.9575C32.6921 30.3286 30.9773 30.1763 29.6335 29.6216C30.3132 29.2622 30.9343 28.8052 31.278 28.3091C32.3561 26.7622 33.5046 25.9888 34.6999 26.0005C35.2273 26.0083 35.7272 26.2896 36.0476 26.7583L36.0437 26.7583ZM73.8447 6.36734C71.458 8.03534 68.0166 10.1134 63.6217 12.547C55.6529 16.9532 46.3717 21.5197 40.8247 24.25C39.3638 24.9688 38.2036 25.5391 37.395 25.9453C37.3794 25.9219 37.3716 25.8946 37.356 25.8711C37.2974 25.7852 37.2231 25.7188 37.1567 25.6407C37.3286 25.5235 37.52 25.3946 37.7505 25.2383C41.2935 22.8321 50.7035 16.4414 59.6805 10.9963C64.7352 7.92991 68.8563 5.65251 71.9305 4.21901C77.036 1.84011 77.7821 2.49241 77.786 2.50021C77.786 2.50021 77.8094 2.53927 77.8094 2.65255C77.8094 2.75021 77.7001 3.67985 73.8446 6.37525L73.8447 6.36734ZM35.4107 17.8673C38.731 17.8673 41.4302 15.8673 41.4302 13.4064C41.4302 10.9455 38.731 8.94554 35.4107 8.94554C32.0904 8.94554 29.3912 10.9455 29.3912 13.4064C29.3912 15.8673 32.0904 17.8673 35.4107 17.8673ZM35.4107 10.5314C37.813 10.5314 39.8443 11.8478 39.8443 13.4064C39.8443 14.965 37.8131 16.2814 35.4107 16.2814C33.0083 16.2814 30.9771 14.965 30.9771 13.4064C30.9771 11.8478 33.0083 10.5314 35.4107 10.5314ZM19.9267 20.9694C23.2079 20.9694 25.8798 18.9889 25.8798 16.5553C25.8798 14.1217 23.2118 12.1412 19.9267 12.1412C16.6455 12.1412 13.9736 14.1217 13.9736 16.5553C13.9736 18.9889 16.6416 20.9694 19.9267 20.9694ZM19.9267 13.7272C22.2939 13.7272 24.2939 15.0202 24.2939 16.5553C24.2939 18.0865 22.2939 19.3834 19.9267 19.3834C17.5595 19.3834 15.5595 18.0904 15.5595 16.5553C15.5595 15.0241 17.5595 13.7272 19.9267 13.7272ZM27.8134 35.4612C26.6415 34.9847 25.2275 34.8948 23.8251 35.2152C22.4228 35.5355 21.1845 36.2269 20.3368 37.1644C19.4188 38.18 19.0556 39.3636 19.3134 40.4964C19.5712 41.6292 20.4111 42.5355 21.6767 43.055C22.3838 43.344 23.1806 43.4885 24.0087 43.4885C24.5517 43.4885 25.1103 43.426 25.6649 43.301C28.7118 42.6057 30.6922 40.2854 30.1727 38.0198C29.9149 36.887 29.075 35.9807 27.8094 35.4612H27.8134ZM25.3173 41.7542C24.2314 42.0003 23.1532 41.9417 22.2821 41.5863C21.5087 41.2699 21.0048 40.7581 20.8641 40.1449C20.7234 39.5316 20.954 38.8519 21.5165 38.2308C22.1454 37.5316 23.0946 37.012 24.1806 36.762C24.622 36.6604 25.0634 36.6096 25.4892 36.6096C26.1103 36.6096 26.7001 36.7151 27.2197 36.926C27.9931 37.2425 28.497 37.7542 28.6377 38.3674C28.9463 39.719 27.4268 41.2697 25.3213 41.7502L25.3173 41.7542ZM20.9345 28.6492C20.8447 26.1765 18.165 24.3328 14.829 24.4539C11.493 24.575 8.95012 26.6062 9.03992 29.0789C9.08289 30.3094 9.78211 31.4266 11.0008 32.2195C12.0633 32.907 13.4188 33.282 14.8485 33.282C14.9462 33.282 15.0477 33.282 15.1454 33.2781C18.4813 33.157 21.0243 31.1258 20.9345 28.6531L20.9345 28.6492ZM15.0868 31.6883C13.872 31.7313 12.7274 31.4461 11.8641 30.8876C11.0907 30.3836 10.6493 29.7196 10.6219 29.0204C10.5672 27.4892 12.5203 26.122 14.8836 26.0399C17.2469 25.9539 19.2938 27.1766 19.3484 28.7079C19.4031 30.2391 17.4501 31.6062 15.0868 31.6883ZM35.6378 44.3443C35.8956 45.4771 36.7355 46.3834 38.0011 46.9029C38.7082 47.192 39.505 47.3365 40.3331 47.3365C40.8761 47.3365 41.4347 47.274 41.9893 47.149C43.3916 46.8287 44.6299 46.1373 45.4776 45.1998C46.3956 44.1842 46.7588 43.0006 46.501 41.8678C45.9854 39.6022 43.1924 38.3717 40.1494 39.0631C37.1025 39.7584 35.1221 42.0787 35.6416 44.3443L35.6378 44.3443ZM44.9542 42.2193C45.0948 42.8326 44.8644 43.5123 44.3019 44.1334C43.673 44.8327 42.7238 45.3522 41.6378 45.6022C40.5519 45.8483 39.4737 45.7897 38.6026 45.4343C37.8291 45.1179 37.3253 44.6062 37.1846 43.9929C36.876 42.6413 38.3955 41.0906 40.501 40.6101C42.6065 40.1296 44.6456 40.8678 44.9542 42.2193Z" fill="black"/>
</svg>
