<?xml version="1.0" standalone="no"?>
<!DOCTYPE svg PUBLIC "-//W3C//DTD SVG 20010904//EN"
 "http://www.w3.org/TR/2001/REC-SVG-20010904/DTD/svg10.dtd">
<svg version="1.0" xmlns="http://www.w3.org/2000/svg"
 width="64.000000pt" height="64.000000pt" viewBox="0 0 64.000000 64.000000"
 preserveAspectRatio="xMidYMid meet">
<metadata>
Created by potrace 1.10, written by Peter Selinger 2001-2011
</metadata>
<g transform="translate(0.000000,64.000000) scale(0.100000,-0.100000)"
fill="#000000" stroke="none">
<path d="M536 609 c-10 -14 -12 -29 -7 -43 13 -33 -108 -198 -152 -208 -37 -8
-86 25 -86 58 -1 32 -25 57 -56 57 -35 0 -58 -29 -51 -63 7 -36 -85 -154 -122
-157 -69 -6 -66 -106 3 -106 35 0 58 29 51 63 -6 35 84 152 124 161 36 8 90
-32 90 -65 0 -28 29 -56 57 -56 31 0 56 34 50 67 -4 23 7 45 60 120 48 68 72
93 88 93 28 0 45 18 45 50 0 14 -5 31 -12 38 -19 19 -65 14 -82 -9z m64 -15
c11 -12 10 -18 -3 -32 -16 -15 -18 -15 -34 0 -13 14 -14 20 -3 32 7 9 16 16
20 16 4 0 13 -7 20 -16z m-340 -174 c0 -10 -6 -20 -12 -23 -21 -7 -38 4 -38
23 0 10 6 20 13 23 20 7 37 -4 37 -23z m148 -113 c4 -20 -25 -34 -40 -19 -15
15 -1 44 19 40 10 -2 19 -11 21 -21z m-318 -107 c0 -20 -17 -30 -37 -22 -17 6
-17 39 0 45 20 7 37 -4 37 -23z"/>
<path d="M104 31 c-17 -17 28 -21 262 -21 179 0 265 3 262 10 -3 10 -514 21
-524 11z"/>
</g>
</svg>
