<svg width="75" height="78" viewBox="0 0 75 78" fill="none" xmlns="http://www.w3.org/2000/svg">
<path fill-rule="evenodd" clip-rule="evenodd" d="M23.8005 70.3961C19.2159 70.3961 14.1457 68.1601 10.518 64.5255C6.83927 60.8391 4.59373 55.6625 4.66165 51.0161C4.71316 47.4469 6.07707 44.2956 8.60615 41.9027C12.0092 38.6839 16.296 38.5535 19.4256 38.4583C21.3936 38.3984 23.0909 38.3468 23.7278 37.5818C24.0734 37.1664 24.1653 36.4722 24.0115 35.4594C23.5604 32.4986 25.3786 29.6083 28.5339 28.2665C31.4947 27.0083 36.0954 27.0444 39.3216 31.2868C39.5632 31.6055 39.5028 32.0609 39.1844 32.3039C38.8661 32.5466 38.4118 32.4853 38.1688 32.1665C35.4468 28.5863 31.582 28.5479 29.0997 29.6027C26.5241 30.6977 25.0889 32.9109 25.4435 35.2405C25.6641 36.6878 25.4661 37.7576 24.8414 38.5107C23.7869 39.7776 21.7872 39.8387 19.4694 39.9091C16.4108 40.0021 12.6035 40.118 9.60053 42.958C7.36278 45.0754 6.15556 47.8691 6.1103 51.037C6.04849 55.3049 8.1308 60.0805 11.5427 63.4997C14.9563 66.9188 19.7229 69.0068 23.9813 68.9432C27.1427 68.8977 29.9312 67.6884 32.0453 65.4462C34.8794 62.4372 34.9954 58.6226 35.0875 55.5572C35.1586 53.2359 35.2187 51.2316 36.4833 50.1763C37.2347 49.5487 38.3031 49.3514 39.7472 49.5721C42.0712 49.9268 44.2817 48.4896 45.3742 45.9085C46.4276 43.4221 46.3898 39.5505 42.815 36.8221C42.4984 36.5791 42.4362 36.1237 42.6791 35.805C42.9207 35.4861 43.3763 35.4248 43.6932 35.6676C47.9277 38.9005 47.9637 43.5103 46.7082 46.4754C45.3683 49.6375 42.4845 51.4587 39.5284 51.0069C38.5174 50.8521 37.8247 50.9454 37.4113 51.2915C36.648 51.9286 36.5965 53.6305 36.5361 55.6013C36.4413 58.7375 36.3112 63.0328 33.0986 66.4426C30.7101 68.9765 27.5651 70.3433 24.0024 70.3947C23.9363 70.3961 23.8681 70.3962 23.8005 70.3961Z" fill="black"/>
<path fill-rule="evenodd" clip-rule="evenodd" d="M33.9334 46.673C33.7403 46.673 33.5561 46.5966 33.4203 46.4604L28.5493 41.5801C28.4121 41.4424 28.335 41.2551 28.338 41.0601C28.3398 40.8653 28.4194 40.6794 28.5598 40.5442L55.9451 14.1296C56.2333 13.8515 56.692 13.8606 56.9696 14.1492C57.2475 14.438 57.2382 14.8974 56.9499 15.1753L30.0962 41.0767L33.9229 44.9112L59.7749 18.0053C60.0526 17.7166 60.5097 17.7079 60.7979 17.9858C61.0861 18.2638 61.0951 18.7232 60.8175 19.0119L34.4539 46.4505C34.3198 46.5908 34.134 46.6712 33.9393 46.673C33.9378 46.673 33.9348 46.673 33.9334 46.673Z" fill="black"/>
<path fill-rule="evenodd" clip-rule="evenodd" d="M55.2114 24.5257C55.0257 24.5257 54.8401 24.455 54.6997 24.3132L50.6526 20.2594C50.3704 19.976 50.3704 19.5167 50.6526 19.2332C50.9364 18.9496 51.395 18.9497 51.6772 19.2332L55.723 23.2868C56.0065 23.5704 56.0065 24.0299 55.7228 24.3132C55.5825 24.455 55.3969 24.5259 55.2114 24.5257ZM50.126 29.8176C49.942 29.8176 49.7563 29.7468 49.6144 29.6052L45.3713 25.3539C45.0892 25.0705 45.089 24.611 45.3712 24.3277C45.6551 24.0441 46.1136 24.0442 46.3957 24.3277L50.639 28.5788C50.9215 28.8622 50.9212 29.3217 50.639 29.6052C50.4974 29.7468 50.3116 29.8176 50.126 29.8176ZM45.0423 35.1094C44.8566 35.1094 44.671 35.0388 44.5306 34.897L40.0897 30.4483C39.8076 30.1647 39.8075 29.7054 40.0897 29.422C40.3736 29.1386 40.8321 29.1386 41.1143 29.422L45.554 33.8707C45.8375 34.1542 45.8374 34.6137 45.5537 34.897C45.4134 35.0386 45.2278 35.1095 45.0423 35.1094ZM39.9569 40.4014C39.7729 40.4014 39.5871 40.3306 39.4453 40.189L34.8084 35.5426C34.5263 35.2592 34.526 34.7999 34.8082 34.5164C35.0905 34.2329 35.5491 34.233 35.8328 34.5164L40.47 39.1626C40.7524 39.446 40.7521 39.9055 40.4699 40.189C40.3284 40.3305 40.1425 40.4015 39.9569 40.4014Z" fill="black"/>
<path fill-rule="evenodd" clip-rule="evenodd" d="M56.3374 13.5152L61.4303 18.6187C61.6459 18.8347 61.9793 18.8594 62.2056 18.6768L69.3208 12.9447C69.4746 12.82 69.5484 12.6836 69.5604 12.5024C69.5713 12.3188 69.5167 12.1727 69.3869 12.0426L62.9 5.54378C62.77 5.41366 62.6251 5.35786 62.441 5.37008C62.2601 5.38152 62.1242 5.45579 62.0004 5.61076L56.28 12.738C56.0974 12.9653 56.1216 13.2995 56.3374 13.5152ZM61.857 20.2509C61.3321 20.2509 60.8068 20.0466 60.4069 19.645L55.3127 14.5415C54.5733 13.8008 54.5037 12.6343 55.1496 11.8285L60.8717 4.70116C61.2507 4.22832 61.762 3.95888 62.3505 3.92155C62.9527 3.88302 63.4974 4.0895 63.9243 4.51752L70.4116 11.0162C70.8388 11.4443 71.0438 11.9901 71.0061 12.5941C70.9685 13.1831 70.6997 13.6957 70.2274 14.0758L63.1143 19.8076C62.7459 20.1048 62.3022 20.251 61.857 20.2509Z" fill="black"/>
<path fill-rule="evenodd" clip-rule="evenodd" d="M59.8469 7.85955C59.6629 7.85955 59.4772 7.7888 59.3354 7.64703L57.0628 5.36964C56.7793 5.08627 56.7791 4.6268 57.0628 4.34347C57.3453 4.05997 57.8037 4.06001 58.0874 4.34347L60.3603 6.62064C60.6424 6.90418 60.6422 7.3637 60.36 7.64703C60.2183 7.7888 60.0325 7.85955 59.8469 7.85955ZM57.5127 10.7691C57.327 10.7691 57.1413 10.6983 56.9994 10.5566L54.4434 7.9943C54.1595 7.7111 54.1595 7.25163 54.4432 6.96817C54.7255 6.68458 55.1841 6.68467 55.4678 6.96817L58.0244 9.53038C58.3078 9.81354 58.3077 10.2732 58.0241 10.5566C57.8824 10.6982 57.6981 10.7692 57.5127 10.7691ZM70.072 18.104C69.8863 18.104 69.7022 18.0333 69.5603 17.8915L67.2879 15.6141C67.0044 15.3306 67.0041 14.8712 67.2877 14.5879C67.57 14.3042 68.0287 14.3044 68.3108 14.5879L70.585 16.8651C70.8671 17.1487 70.867 17.6082 70.5849 17.8915C70.4431 18.0333 70.2575 18.1041 70.072 18.104ZM67.4522 20.7287C67.2668 20.7287 67.081 20.658 66.9407 20.5162L64.3829 17.954C64.1008 17.6705 64.1008 17.2112 64.3829 16.9278C64.6654 16.6443 65.1253 16.6443 65.4075 16.9278L67.9656 19.4898C68.2477 19.7733 68.2475 20.2329 67.9653 20.5162C67.8237 20.6579 67.6379 20.7288 67.4522 20.7287Z" fill="black"/>
<path fill-rule="evenodd" clip-rule="evenodd" d="M25.5946 65.3039C25.0606 65.3039 24.5201 65.1739 24.0221 64.9003C23.0204 64.351 22.3833 63.3404 22.3154 62.1974C22.1543 59.4908 25.3425 58.3693 27.9048 57.4682C28.8571 57.1329 29.7563 56.8164 30.3675 56.4709C30.7479 56.2564 30.9303 55.9755 30.9288 55.612C30.9258 55.1224 30.5893 54.6101 30.2784 54.4388C29.7548 54.151 29.0878 54.3407 28.7936 54.8612C28.596 55.2098 28.1537 55.3324 27.8067 55.1344C27.4583 54.9367 27.3359 54.4939 27.5336 54.1452C28.2171 52.9381 29.7593 52.4993 30.974 53.1659C31.7814 53.6091 32.3714 54.6343 32.3774 55.6031C32.3838 56.5017 31.9217 57.259 31.0797 57.7351C30.3571 58.1435 29.3987 58.4807 28.3846 58.8377C26.1725 59.6157 23.666 60.4976 23.7611 62.1114C23.7989 62.7526 24.1564 63.3197 24.7178 63.628C25.599 64.1119 26.7187 63.7931 27.2151 62.9176C27.4114 62.5689 27.8534 62.4466 28.202 62.6444C28.5509 62.8421 28.6714 63.2849 28.4752 63.6337C27.8701 64.7006 26.7474 65.3039 25.5946 65.3039Z" fill="black"/>
<path fill-rule="evenodd" clip-rule="evenodd" d="M13.0365 52.7127C12.9733 52.7127 12.9082 52.7108 12.8418 52.7068C11.7011 52.6388 10.6929 51.9996 10.1437 50.9968C9.28373 49.4221 9.85096 47.4209 11.4083 46.5352C11.7568 46.3374 12.1989 46.4598 12.3966 46.8085C12.5944 47.1572 12.4721 47.6001 12.1235 47.7979C11.2499 48.2943 10.9314 49.4163 11.4143 50.299C11.7222 50.8614 12.288 51.2199 12.9278 51.258C14.5395 51.3532 15.4191 48.842 16.1962 46.626C16.5526 45.6091 16.8889 44.6488 17.2963 43.9251C17.7687 43.0861 18.5186 42.625 19.4074 42.625C19.4137 42.625 19.418 42.625 19.424 42.6252C20.3916 42.631 21.4144 43.2222 21.8565 44.0309C22.5221 45.2474 22.0829 46.7941 20.8786 47.4785C20.5318 47.6761 20.0895 47.554 19.8918 47.2052C19.6942 46.8565 19.8164 46.4137 20.1649 46.2159C20.6842 45.9207 20.8726 45.2535 20.5859 44.7285C20.4157 44.416 19.9039 44.0795 19.415 44.0764C19.4137 44.0764 19.4104 44.0764 19.4089 44.0764C19.0484 44.0764 18.7706 44.2603 18.5579 44.6383C18.2125 45.2505 17.8969 46.1523 17.5619 47.1067C16.6853 49.6109 15.5972 52.7124 13.0365 52.7127Z" fill="black"/>
<path fill-rule="evenodd" clip-rule="evenodd" d="M27.454 50.5242C27.2683 50.5242 27.084 50.4534 26.9422 50.3117L24.7059 48.071C24.4224 47.7876 24.4221 47.3282 24.7059 47.0447C24.988 46.7611 25.4468 46.7612 25.7304 47.0447L27.967 49.2854C28.2492 49.5688 28.249 50.0283 27.9668 50.3117C27.8251 50.4533 27.6393 50.5243 27.454 50.5242Z" fill="black"/>
<path fill-rule="evenodd" clip-rule="evenodd" d="M23.939 54.0448C23.755 54.0448 23.5693 53.9739 23.4275 53.8321L21.1913 51.5915C20.9077 51.3081 20.9075 50.8487 21.1912 50.5652C21.4734 50.2816 21.932 50.2817 22.2157 50.5652L24.4524 52.8057C24.7345 53.0893 24.7343 53.5488 24.4521 53.8321C24.3105 53.9739 24.1246 54.0449 23.939 54.0448Z" fill="black"/>
<path fill-rule="evenodd" clip-rule="evenodd" d="M20.426 57.566C20.2403 57.566 20.0545 57.4952 19.9127 57.3536L17.6765 55.1129C17.3944 54.8293 17.3942 54.37 17.6764 54.0866C17.9587 53.8031 18.4173 53.8031 18.701 54.0866L20.9373 56.3273C21.2198 56.6105 21.2195 57.0701 20.9373 57.3536C20.7957 57.4951 20.6098 57.5662 20.426 57.566Z" fill="black"/>
<path fill-rule="evenodd" clip-rule="evenodd" d="M16.9123 61.0866C16.7266 61.0866 16.5409 61.0159 16.399 60.8742L14.1629 58.6333C13.8807 58.3501 13.8805 57.8906 14.1627 57.6072C14.4464 57.3236 14.9051 57.3237 15.1873 57.6072L17.4236 59.8477C17.7058 60.1313 17.7058 60.5907 17.4236 60.8742C17.2821 61.0159 17.0962 61.0866 16.9123 61.0866Z" fill="black"/>
<path fill-rule="evenodd" clip-rule="evenodd" d="M28.9366 35.6211C28.7512 35.6211 28.5654 35.5505 28.4235 35.4086C28.1414 35.1251 28.1414 34.6658 28.4235 34.3823L30.6071 32.195C30.8909 31.9115 31.3495 31.9116 31.6316 32.1951C31.9139 32.4784 31.9139 32.9379 31.6316 33.2213L29.4483 35.4085C29.308 35.5504 29.1222 35.6212 28.9366 35.6211Z" fill="black"/>
<path fill-rule="evenodd" clip-rule="evenodd" d="M40.3058 46.5842C40.1201 46.5842 39.9344 46.5133 39.7926 46.3717C39.5107 46.0881 39.5104 45.6287 39.7926 45.3454L41.9763 43.1579C42.2584 42.8744 42.717 42.8745 43.0007 43.1579C43.2831 43.4413 43.2829 43.9009 43.0007 44.1842L40.8175 46.3716C40.6756 46.5133 40.4912 46.5842 40.3058 46.5842Z" fill="black"/>
<path fill-rule="evenodd" clip-rule="evenodd" d="M25.4752 32.4438C25.2912 32.4438 25.1053 32.373 24.9635 32.2311L9.2158 16.4525C8.93199 16.169 8.93199 15.7097 9.21567 15.4263L11.7765 12.8603C13.4711 11.1624 16.228 11.1625 17.9226 12.8603L32.7967 27.7626C33.0789 28.0462 33.0789 28.5056 32.7967 28.789C32.5132 29.0725 32.0543 29.0725 31.7721 28.789L16.8982 13.8866C15.7679 12.7548 13.9298 12.7548 12.801 13.8866L10.7518 15.9394L25.9883 31.2047C26.2704 31.4882 26.2703 31.9478 25.9881 32.2311C25.8463 32.3729 25.6607 32.4439 25.4752 32.4438ZM51.2579 58.2748C51.0648 58.2748 50.8805 58.1983 50.7446 58.0622L42.7515 50.0532C42.468 49.7696 42.4678 49.3103 42.7515 49.0269C43.0337 48.7433 43.4924 48.7434 43.7761 49.0269L51.2579 56.5227L55.3546 52.4171L46.1862 43.2314C45.904 42.948 45.9038 42.4887 46.186 42.2052C46.4697 41.9217 46.9284 41.9217 47.2106 42.2052L56.891 51.9039C57.1745 52.1874 57.1744 52.647 56.8907 52.9303L51.7693 58.0622C51.6335 58.1982 51.4494 58.2748 51.2579 58.2748Z" fill="black"/>
<path fill-rule="evenodd" clip-rule="evenodd" d="M65.9426 62.7242C65.7569 62.7242 65.5726 62.6537 65.4308 62.512L55.867 52.9302C55.5848 52.647 55.5846 52.1875 55.8668 51.904C56.1508 51.6205 56.6092 51.6206 56.8914 51.904L66.4557 61.4857C66.7378 61.769 66.7376 62.2285 66.4554 62.512C66.3137 62.6535 66.128 62.7244 65.9426 62.7242Z" fill="black"/>
<path fill-rule="evenodd" clip-rule="evenodd" d="M24.4249 38.5754C24.2392 38.5754 24.0534 38.5047 23.9131 38.3629L7.9842 22.4035C7.70069 22.12 7.70048 21.6605 7.98416 21.3771L11.5696 17.7849C11.852 17.5013 12.3105 17.5015 12.5941 17.7849C12.8764 18.0682 12.8763 18.5277 12.5941 18.8112L9.52054 21.8902L24.9379 37.3365C25.2201 37.62 25.2199 38.0795 24.9377 38.3629C24.796 38.5046 24.6102 38.5754 24.4249 38.5754ZM45.9507 60.1431C45.7663 60.1431 45.5807 60.0724 45.4389 59.9306L36.6311 51.1057C36.349 50.8223 36.3487 50.363 36.6309 50.0795C36.9133 49.796 37.3718 49.796 37.6555 50.0795L45.9507 58.3912L49.0244 55.312C49.3065 55.0285 49.7652 55.0286 50.0488 55.312C50.3312 55.5954 50.331 56.055 50.0488 56.3383L46.4637 59.9306C46.3218 60.0723 46.136 60.1432 45.9507 60.1431Z" fill="black"/>
</svg>
