<svg width="74" height="68" viewBox="0 0 74 68" fill="none" xmlns="http://www.w3.org/2000/svg">
<g clip-path="url(#clip0_27_913)">
<path fill-rule="evenodd" clip-rule="evenodd" d="M24.5914 48.5493C28.8657 48.5493 33.1473 49.5109 37 51.3348C40.8512 49.5107 45.1344 48.5493 49.4072 48.5493C53.415 48.5493 57.4317 49.3953 61.0932 51.0059L61.0934 13.8254C53.6078 10.3169 44.7567 10.3821 37.3207 14.0181C37.1194 14.1158 36.8811 14.1158 36.6779 14.0181C29.2439 10.382 20.391 10.3169 12.907 13.8254L12.9072 51.0058C16.5687 49.3952 20.5836 48.5493 24.5914 48.5493ZM37 52.8371C36.8902 52.8371 36.7787 52.8135 36.6777 52.7631C29.1096 49.0633 20.0733 49.0634 12.5049 52.7631C12.2824 52.8726 12.0156 52.8609 11.8033 52.7305C11.591 52.6016 11.4615 52.3734 11.4615 52.126L11.4616 13.3809C11.4616 13.1096 11.6166 12.8638 11.862 12.7438C15.7975 10.8191 20.1981 9.80273 24.5913 9.80273C28.8657 9.80261 33.1473 10.7644 36.9999 12.5883C40.8512 10.7642 45.1344 9.80273 49.4071 9.80273C53.8004 9.80261 58.2025 10.8192 62.1364 12.7438C62.3836 12.8638 62.5383 13.1098 62.5383 13.3809V52.1258C62.5383 52.3733 62.4089 52.6015 62.1966 52.7304C61.9828 52.8607 61.7178 52.8727 61.4935 52.7631C53.9254 49.0633 44.8889 49.0634 37.3207 52.7631C37.2199 52.8134 37.1099 52.8372 37 52.8371Z" fill="black"/>
<path fill-rule="evenodd" clip-rule="evenodd" d="M37 46.3283C36.7351 46.3283 36.479 46.1847 36.3526 45.9343C36.1751 45.5816 36.321 45.155 36.6778 44.9801C40.6134 43.057 45.0139 42.0391 49.4071 42.0391C53.8004 42.039 58.2024 43.057 62.1363 44.9801C62.495 45.1549 62.6407 45.5817 62.463 45.9343C62.2856 46.2853 61.8518 46.4292 61.4935 46.2543C53.9254 42.5531 44.8889 42.5532 37.3206 46.2543C37.2185 46.3047 37.1084 46.3284 37 46.3283Z" fill="black"/>
<path fill-rule="evenodd" clip-rule="evenodd" d="M12.1846 46.3283C11.9194 46.3283 11.6634 46.1847 11.5369 45.9343C11.3594 45.5816 11.5053 45.155 11.8621 44.9801C15.7977 43.057 20.1983 42.0391 24.5915 42.0391C28.9847 42.039 33.3868 43.057 37.3207 44.9801C37.6793 45.1549 37.8251 45.5817 37.6475 45.9343C37.4699 46.2853 37.0362 46.4292 36.6778 46.2543C29.1097 42.5531 20.0734 42.5532 12.505 46.2543C12.4027 46.3047 12.2927 46.3284 12.1846 46.3283Z" fill="black"/>
<path fill-rule="evenodd" clip-rule="evenodd" d="M37 52.8373C36.6013 52.8373 36.2773 52.5203 36.2773 52.1262L36.2774 13.3811C36.2774 12.9884 36.601 12.6699 37 12.6699C37.399 12.6698 37.7226 12.9885 37.7226 13.3811L37.7229 52.126C37.7229 52.5202 37.3989 52.8374 37 52.8373Z" fill="black"/>
<path fill-rule="evenodd" clip-rule="evenodd" d="M41.1271 63.0234H32.8722C31.4989 63.0234 30.3817 61.9227 30.3817 60.5714L30.382 59.2142H4.62383C4.22476 59.2142 3.90085 58.8957 3.90085 58.5031L3.90093 21.1077C3.90093 20.7151 4.22455 20.3965 4.62353 20.3965L12.1846 20.3965C12.5833 20.3965 12.907 20.7151 12.907 21.1077C12.9071 21.5003 12.5833 21.8189 12.1843 21.8189L5.34635 21.8188V57.7918H31.1046C31.5036 57.7918 31.827 58.1104 31.827 58.503L31.8271 60.5713C31.8271 61.1387 32.2952 61.6011 32.8719 61.6011L41.127 61.6011C41.7035 61.6011 42.1731 61.1389 42.1731 60.5714V58.5029C42.1731 58.1104 42.4968 57.7918 42.8957 57.7918H68.6541V21.8188H61.8159C61.4168 21.8188 61.0931 21.5004 61.0931 21.1077C61.0933 20.7151 61.4168 20.3965 61.8158 20.3965L69.3767 20.3965C69.7757 20.3965 70.0992 20.7151 70.0992 21.1077V58.5029C70.0992 58.8957 69.7755 59.2142 69.3766 59.2142L43.6185 59.2142V60.5713C43.6185 61.9227 42.4998 63.0235 41.1271 63.0234Z" fill="black"/>
<path fill-rule="evenodd" clip-rule="evenodd" d="M41.9112 40.0994C41.5952 40.1009 41.3044 39.895 41.2155 39.5794C41.1087 39.2016 41.333 38.809 41.7169 38.7038C46.7485 37.3214 52.0675 37.3214 57.0975 38.7038C57.483 38.8089 57.7072 39.2016 57.5988 39.5794C57.4921 39.9572 57.0929 40.1795 56.709 40.0728C51.9337 38.7616 46.8838 38.7616 42.1054 40.0743C42.0407 40.0921 41.9759 40.0995 41.9112 40.0994Z" fill="black"/>
<path fill-rule="evenodd" clip-rule="evenodd" d="M46.1208 17.3964H52.6955C53.0461 17.3964 53.3471 17.6454 53.4074 17.9861C53.5715 18.9284 54.3965 19.613 55.3706 19.613C56.4698 19.613 57.3639 18.7329 57.3639 17.6513C57.3641 16.5697 56.4696 15.6911 55.3706 15.6911H43.444C42.3465 15.6911 41.452 16.5697 41.452 17.6513C41.4522 18.7329 42.3462 19.613 43.4437 19.613C44.4179 19.613 45.2444 18.9285 45.4085 17.9861C45.4674 17.6453 45.7683 17.3965 46.1208 17.3964ZM55.3706 21.0353C53.9028 21.0353 52.629 20.1331 52.1412 18.8189L46.6733 18.8187C46.1868 20.1331 44.9131 21.0354 43.4437 21.0354C41.5484 21.0353 40.0066 19.5167 40.0066 17.6513C40.0067 15.7859 41.5483 14.2687 43.4437 14.2687L55.3706 14.2686C57.2662 14.2686 58.8092 15.7859 58.8092 17.6513C58.8095 19.5166 57.266 21.0354 55.3706 21.0353Z" fill="black"/>
<path fill-rule="evenodd" clip-rule="evenodd" d="M42.5165 29.8158H56.298V28.3237H42.5165V29.8158ZM56.4816 31.2382H42.3342C41.637 31.2382 41.0709 30.6812 41.0709 29.9966L41.071 28.143C41.071 27.4584 41.637 26.9015 42.3341 26.9015L56.4816 26.9014C57.1774 26.9014 57.7432 27.4585 57.7432 28.1431L57.7434 29.9966C57.7434 30.6811 57.1772 31.2382 56.4816 31.2382Z" fill="black"/>
<path fill-rule="evenodd" clip-rule="evenodd" d="M43.444 28.3237C43.0449 28.3237 42.721 28.0053 42.721 27.6127L42.7211 20.3243C42.7211 19.9318 43.0447 19.6133 43.4437 19.6133C43.8444 19.6132 44.1663 19.9318 44.1663 20.3245L44.1665 27.6127C44.1665 28.0052 43.8441 28.3239 43.444 28.3237Z" fill="black"/>
<path fill-rule="evenodd" clip-rule="evenodd" d="M55.3706 28.3237C54.9719 28.3237 54.648 28.0053 54.648 27.6127L54.6481 20.3243C54.6481 19.9318 54.9716 19.6133 55.3706 19.6133C55.7696 19.6132 56.0933 19.9318 56.0933 20.3245L56.0935 27.6127C56.0935 28.0052 55.7696 28.3239 55.3706 28.3237Z" fill="black"/>
<path fill-rule="evenodd" clip-rule="evenodd" d="M46.1208 28.3235C45.7217 28.3235 45.3979 28.0051 45.3979 27.6125V21.9806C45.3979 21.5881 45.7216 21.2695 46.1205 21.2695C46.5198 21.2694 46.8432 21.5881 46.8432 21.9807L46.8433 27.6124C46.8433 28.005 46.5195 28.3237 46.1208 28.3235Z" fill="black"/>
<path fill-rule="evenodd" clip-rule="evenodd" d="M49.4073 28.3235C49.0082 28.3235 48.6845 28.0051 48.6845 27.6125L48.6847 21.9806C48.6847 21.5881 49.0082 21.2695 49.4072 21.2695C49.8063 21.2694 50.1298 21.5881 50.1298 21.9807L50.1298 27.6124C50.1298 28.005 49.8061 28.3237 49.4073 28.3235Z" fill="black"/>
<path fill-rule="evenodd" clip-rule="evenodd" d="M52.6937 28.3235C52.295 28.3235 51.971 28.0051 51.971 27.6125L51.9712 21.9806C51.9712 21.5881 52.2947 21.2695 52.6937 21.2695C53.0942 21.2694 53.4179 21.5881 53.4179 21.9807L53.418 27.6124C53.418 28.005 53.0942 28.3237 52.6937 28.3235Z" fill="black"/>
<path fill-rule="evenodd" clip-rule="evenodd" d="M41.9112 36.1541C41.5952 36.1541 41.3044 35.9497 41.2155 35.6342C41.1087 35.2563 41.333 34.8637 41.7169 34.7585C46.7485 33.376 52.0675 33.3761 57.0975 34.7585C57.483 34.8636 57.7072 35.2563 57.5988 35.6342C57.4921 36.012 57.0929 36.2327 56.709 36.1276C51.9337 34.8163 46.8838 34.8163 42.1054 36.129C42.0407 36.1468 41.9759 36.1542 41.9112 36.1541Z" fill="black"/>
<path fill-rule="evenodd" clip-rule="evenodd" d="M17.0953 40.0994C16.7793 40.1009 16.4886 39.895 16.3998 39.5794C16.2929 39.2016 16.5172 38.809 16.9011 38.7038C21.9326 37.3214 27.2517 37.3214 32.2817 38.7038C32.6671 38.8089 32.8914 39.2016 32.783 39.5794C32.6763 39.9572 32.2786 40.1795 31.8932 40.0728C27.1178 38.7616 22.0681 38.7616 17.2895 40.0743C17.2251 40.0921 17.1601 40.0995 17.0953 40.0994Z" fill="black"/>
<path fill-rule="evenodd" clip-rule="evenodd" d="M17.0953 32.9114C16.7793 32.9114 16.4886 32.7056 16.3998 32.3915C16.2929 32.0122 16.5172 31.6195 16.9011 31.5143C21.9326 30.1319 27.2517 30.132 32.2817 31.5143C32.6671 31.6194 32.8914 32.0122 32.783 32.39C32.6763 32.7692 32.2786 32.9901 31.8932 32.8849C27.1178 31.5721 22.0666 31.5721 17.2895 32.8849C17.2251 32.9026 17.1601 32.9115 17.0953 32.9114Z" fill="black"/>
<path fill-rule="evenodd" clip-rule="evenodd" d="M17.0953 25.7233C16.7793 25.7233 16.4886 25.5175 16.3998 25.2034C16.2929 24.824 16.5172 24.4329 16.9011 24.3263C21.9326 22.9454 27.2517 22.9439 32.2817 24.3263C32.6671 24.4313 32.8914 24.8241 32.783 25.2034C32.6763 25.5811 32.2786 25.802 31.8932 25.6968C27.1178 24.384 22.0666 24.3841 17.2895 25.6968C17.2251 25.7145 17.1601 25.7235 17.0953 25.7233Z" fill="black"/>
<path fill-rule="evenodd" clip-rule="evenodd" d="M17.0953 18.5343C16.7793 18.5343 16.4886 18.3283 16.3998 18.0142C16.2929 17.6364 16.5172 17.2437 16.9011 17.1386C21.9326 15.7561 27.2517 15.7562 32.2817 17.1371C32.6671 17.2436 32.8914 17.6349 32.783 18.0142C32.6763 18.3919 32.2786 18.6128 31.8932 18.5076C27.1165 17.1948 22.0666 17.1963 17.2895 18.5076C17.2251 18.5253 17.1601 18.5343 17.0953 18.5343Z" fill="black"/>
</g>
<defs>
<clipPath id="clip0_27_913">
<rect width="74" height="68" fill="white"/>
</clipPath>
</defs>
</svg>
