<svg width="60" height="60" viewBox="0 0 60 60" fill="none" xmlns="http://www.w3.org/2000/svg">
<path fill-rule="evenodd" clip-rule="evenodd" d="M19 2C19 1.448 19.448 1 20 1C20 0.448 20.448 0 21 0C21.552 0 22 0.448 22 1C22.552 1 23 1.448 23 2C23 2.552 22.552 3 22 3C22 3.552 21.552 4 21 4C20.448 4 20 3.552 20 3C19.448 3 19 2.552 19 2ZM47 9C47 8.448 47.448 8 48 8C48 7.448 48.448 7 49 7C49.552 7 50 7.448 50 8C50.552 8 51 8.448 51 9C51 9.552 50.552 10 50 10C50 10.552 49.552 11 49 11C48.448 11 48 10.552 48 10C47.448 10 47 9.552 47 9ZM0 5C0 4.448 0.448 4 1 4H2V3C2 2.448 2.448 2 3 2C3.552 2 4 2.448 4 3V4H5C5.552 4 6 4.448 6 5C6 5.552 5.552 6 5 6H4V7C4 7.552 3.552 8 3 8C2.448 8 2 7.552 2 7V6H1C0.448 6 0 5.552 0 5ZM9 43V45C9 45.552 8.552 46 8 46C7.448 46 7 45.552 7 45V43C7 42.448 7.448 42 8 42C8.552 42 9 42.448 9 43ZM53 43V45C53 45.552 52.552 46 52 46C51.448 46 51 45.552 51 45V43C51 42.448 51.448 42 52 42C52.552 42 53 42.448 53 43ZM53 37C53 37.552 52.552 38 52 38C51.448 38 51 37.552 51 37V35C51 34.448 51.448 34 52 34C52.552 34 53 34.448 53 35V37ZM30 26C30.552 26 31 26.448 31 27V29C31 29.552 30.552 30 30 30C29.448 30 29 29.552 29 29V27C29 26.448 29.448 26 30 26ZM9 37C9 37.552 8.552 38 8 38C7.448 38 7 37.552 7 37V35C7 34.448 7.448 34 8 34C8.552 34 9 34.448 9 35V37ZM46.105 24.553L51.105 14.553C51.148 14.466 51.205 14.392 51.27 14.328C51.452 14.129 51.709 14 52 14C52.291 14 52.548 14.129 52.73 14.328C52.795 14.392 52.852 14.466 52.895 14.553L57.895 24.553C58.142 25.047 57.941 25.647 57.447 25.895C57.304 25.966 57.151 26 57.001 26C56.634 26 56.281 25.798 56.105 25.447L53 19.236V25C53 25.552 52.552 26 52 26C51.448 26 51 25.552 51 25V19.236L47.895 25.447C47.648 25.94 47.048 26.142 46.553 25.895C46.059 25.647 45.858 25.047 46.105 24.553ZM2.105 24.553L7.105 14.553C7.148 14.466 7.205 14.392 7.27 14.328C7.452 14.129 7.709 14 8 14C8.291 14 8.548 14.129 8.73 14.328C8.795 14.392 8.852 14.466 8.895 14.553L13.895 24.553C14.142 25.047 13.941 25.647 13.447 25.895C13.304 25.966 13.151 26 13.001 26C12.634 26 12.281 25.798 12.105 25.447L9 19.236V25C9 25.552 8.552 26 8 26C7.448 26 7 25.552 7 25V19.236L3.895 25.447C3.647 25.94 3.048 26.142 2.553 25.895C2.059 25.647 1.858 25.047 2.105 24.553ZM58 58H40V55C40 55.552 40.448 56 41 56C41.552 56 42 55.552 42 55C42 55.552 42.448 56 43 56C43.552 56 44 55.552 44 55C44 55.552 44.448 56 45 56C45.552 56 46 55.552 46 55C46 55.552 46.448 56 47 56C47.552 56 48 55.552 48 55C48 55.552 48.448 56 49 56C49.552 56 50 55.552 50 55C50 55.552 50.448 56 51 56C51.552 56 52 55.552 52 55C52 55.552 52.448 56 53 56C53.552 56 54 55.552 54 55C54 55.552 54.448 56 55 56C55.552 56 56 55.552 56 55C56 55.552 56.448 56 57 56C57.552 56 58 55.552 58 55V58ZM58 53C57.636 53 57.294 53.098 57 53.269C56.411 52.927 55.589 52.927 55 53.269C54.411 52.927 53.589 52.927 53 53.269C52.411 52.927 51.589 52.927 51 53.269C50.411 52.927 49.589 52.927 49 53.269C48.411 52.927 47.589 52.927 47 53.269C46.411 52.927 45.589 52.927 45 53.269C44.411 52.927 43.589 52.927 43 53.269C42.411 52.927 41.589 52.927 41 53.269C40.706 53.098 40.364 53 40 53C38.897 53 38 53.897 38 55V59C38 59.552 38.448 60 39 60H59C59.552 60 60 59.552 60 59V55C60 53.897 59.103 53 58 53ZM20 58H2V55C2 55.552 2.448 56 3 56C3.552 56 4 55.552 4 55C4 55.552 4.448 56 5 56C5.552 56 6 55.552 6 55C6 55.552 6.448 56 7 56C7.552 56 8 55.552 8 55C8 55.552 8.448 56 9 56C9.552 56 10 55.552 10 55C10 55.552 10.448 56 11 56C11.552 56 12 55.552 12 55C12 55.552 12.448 56 13 56C13.552 56 14 55.552 14 55C14 55.552 14.448 56 15 56C15.552 56 16 55.552 16 55C16 55.552 16.448 56 17 56C17.552 56 18 55.552 18 55C18 55.552 18.448 56 19 56C19.552 56 20 55.552 20 55V58ZM20 53C19.636 53 19.294 53.098 19 53.269C18.411 52.927 17.589 52.927 17 53.269C16.411 52.927 15.589 52.927 15 53.269C14.411 52.927 13.589 52.927 13 53.269C12.411 52.927 11.589 52.927 11 53.269C10.411 52.927 9.589 52.927 9 53.269C8.411 52.927 7.589 52.927 7 53.269C6.411 52.927 5.589 52.927 5 53.269C4.411 52.927 3.589 52.927 3 53.269C2.706 53.098 2.364 53 2 53C0.897 53 0 53.897 0 55V59C0 59.552 0.448 60 1 60H21C21.552 60 22 59.552 22 59V55C22 53.897 21.103 53 20 53ZM34 31V22H26V31C26 31.552 25.552 32 25 32C24.448 32 24 31.552 24 31V22H23C22.448 22 22 21.552 22 21C22 20.448 22.448 20 23 20H37C37.552 20 38 20.448 38 21C38 21.552 37.552 22 37 22H36V31C36 31.552 35.552 32 35 32C34.448 32 34 31.552 34 31ZM24.105 16.553L29 6.764V1C29 0.448 29.448 0 30 0H37C37.552 0 38 0.448 38 1V5C38 5.552 37.552 6 37 6H33C32.448 6 32 5.552 32 5C32 4.448 32.448 4 33 4H36V2H31V6.764L35.895 16.553C36.142 17.047 35.941 17.647 35.447 17.895C35.304 17.966 35.151 18 35.001 18C34.634 18 34.281 17.798 34.105 17.447L31 11.236V17C31 17.552 30.552 18 30 18C29.448 18 29 17.552 29 17V11.236L25.895 17.447C25.647 17.941 25.047 18.142 24.553 17.895C24.059 17.647 23.858 17.047 24.105 16.553ZM44 29C44 28.448 44.448 28 45 28H59C59.552 28 60 28.448 60 29C60 29.552 59.552 30 59 30H58V50C58 50.552 57.552 51 57 51C56.448 51 56 50.552 56 50V30H48V31C48 31.552 47.552 32 47 32C46.448 32 46 31.552 46 31V30H45C44.448 30 44 29.552 44 29ZM0 29C0 28.448 0.448 28 1 28H15C15.552 28 16 28.448 16 29C16 29.552 15.552 30 15 30H14V31C14 31.552 13.552 32 13 32C12.448 32 12 31.552 12 31V30H4V51C4 51.552 3.552 52 3 52C2.448 52 2 51.552 2 51V30H1C0.448 30 0 29.552 0 29ZM43 40H37C36.448 40 36 39.552 36 39V36H34V39C34 39.552 33.552 40 33 40H27C26.448 40 26 39.552 26 39V36H24V39C24 39.552 23.552 40 23 40H17C16.448 40 16 39.552 16 39V36H14V50C14 50.552 13.552 51 13 51C12.448 51 12 50.552 12 50V35C12 34.448 12.448 34 13 34H17C17.552 34 18 34.448 18 35V38H22V35C22 34.448 22.448 34 23 34H27C27.552 34 28 34.448 28 35V38H32V35C32 34.448 32.448 34 33 34H37C37.552 34 38 34.448 38 35V38H42V35C42 34.448 42.448 34 43 34H47C47.552 34 48 34.448 48 35V50C48 50.552 47.552 51 47 51C46.448 51 46 50.552 46 50V36H44V39C44 39.552 43.552 40 43 40ZM26 56H34V58H26V56ZM30 46C32.206 46 34 47.794 34 50H26C26 47.794 27.794 46 30 46ZM26 52H34V54H26V52ZM30 44C26.691 44 24 46.691 24 50V59C24 59.552 24.448 60 25 60H35C35.552 60 36 59.552 36 59V50C36 46.691 33.309 44 30 44Z" fill="black"/>
</svg>
