<svg width="69" height="80" viewBox="0 0 69 80" fill="none" xmlns="http://www.w3.org/2000/svg">
<path d="M36.4922 35.2418V53.1133C28.1683 54.5355 28.97 66.5703 37.4723 66.8141H57.0746C65.5698 66.573 66.3858 54.5382 58.0547 53.1133V35.2418C66.383 33.8171 65.5694 21.7823 57.0746 21.541H37.4723C28.9772 21.7822 28.1636 33.8194 36.4922 35.2418ZM57.0743 23.5095C63.5553 23.7408 63.5603 33.1158 57.0792 33.352C55.4497 33.3496 54.134 32.0257 54.134 30.3993C54.0604 27.9214 57.2238 26.5016 59.0198 28.1847C59.973 29.0337 61.2815 27.5647 60.316 26.7083C57.2728 23.9032 52.0931 26.2457 52.174 30.3993C52.174 32.7762 53.8598 34.7645 56.0945 35.2221V53.1358C50.3878 54.4153 51.1817 62.7522 57.0746 62.88C58.2851 62.9293 61.5244 61.8835 60.4021 60.2594C60.0419 59.851 59.4244 59.8141 59.0177 60.1733C57.2216 61.8564 54.0608 60.4366 54.1343 57.9588C54.1343 56.3299 55.4525 55.006 57.0746 55.006C63.5556 55.2349 63.5631 64.6174 57.0746 64.8485H37.4723C34.7697 64.8485 32.5718 62.6414 32.5718 59.9273C32.5718 57.2132 34.7697 55.006 37.4723 55.006C39.0944 55.006 40.4127 56.3299 40.4127 57.9588C40.4862 60.4366 37.3253 61.8589 35.5292 60.1733C35.1225 59.8141 34.505 59.8534 34.1448 60.2594C33.0104 61.8834 36.284 62.9317 37.4723 62.88C43.3751 62.7521 44.1515 54.4108 38.4525 53.1358V35.2221C40.6871 34.7644 42.3729 32.7762 42.3729 30.3993C42.4562 26.2457 37.2714 23.9035 34.2309 26.7083C33.2778 27.5646 34.5592 29.0312 35.5271 28.1847C36.0637 27.7098 36.7547 27.4465 37.4727 27.4465C41.3515 27.5499 41.3466 33.2462 37.4776 33.352C30.989 33.1207 30.984 23.7432 37.4727 23.5095H57.0749H57.0743Z" fill="black"/>
<path d="M47.2732 62.8791C49.4343 62.8791 51.1936 61.1124 51.1936 58.9421V29.4145C51.1936 27.2443 49.4343 25.4775 47.2732 25.4775C45.112 25.4775 43.3527 27.2443 43.3527 29.4145V58.9421C43.3527 61.1124 45.112 62.8791 47.2732 62.8791ZM45.3129 29.4145C45.3766 26.8284 49.1648 26.8112 49.2334 29.4145V58.9421C49.1697 61.5282 45.3816 61.5454 45.3129 58.9421V29.4145Z" fill="black"/>
<path d="M9.73528 64.8481H29.5728C30.1143 64.8481 30.5529 64.4077 30.5529 63.8639C30.5529 63.3201 30.1143 62.8796 29.5728 62.8796H20.8104V58.9426H28.8765C30.1654 58.9205 30.1654 56.9963 28.8765 56.9741H25.7107V53.0371H33.4632C34.752 53.015 34.752 51.0908 33.4632 51.0686H30.611V47.1316H35.0215C36.0213 47.1488 36.3716 45.7463 35.4846 45.296C35.541 45.0499 35.5042 44.7817 35.3597 44.5504L28.6265 33.7926C26.9603 30.9506 22.4959 30.9481 20.832 33.7926L9.8353 51.3567C9.74464 51.4502 9.67603 51.5634 9.62703 51.6889L5.82663 57.7592C3.84928 60.6775 6.22155 64.9785 9.73528 64.8481ZM18.8502 62.8796H11.0093V58.9426H18.8502V62.8796ZM23.7507 56.9741H15.9098V53.0371H23.7507V56.9741ZM28.6513 51.0686H20.8104V47.1316H28.6513V51.0686ZM33.4294 45.1631H25.7108V41.2261H30.9642L33.4294 45.1631ZM22.491 34.8406C23.4441 33.2092 26.0121 33.2092 26.9677 34.8406L29.7315 39.2574H19.7247L22.4885 34.8406H22.491ZM18.4946 41.2261H23.7504V45.1631H16.0293L18.4946 41.2261ZM14.7971 47.1316H18.8499V51.0686H12.3319L14.7971 47.1316ZM11.0997 53.0371H13.9494V56.9741H8.63466L11.0997 53.0371ZM7.42422 58.9426H9.04873V62.7886C7.44134 62.4171 6.55676 60.3723 7.42422 58.9426Z" fill="black"/>
<path d="M9.04891 28.4307H18.85C24.0961 28.2609 23.9907 20.5812 18.752 20.5592C17.6421 15.3476 10.2544 15.3525 9.14724 20.5592C3.90851 20.6207 3.80043 28.2512 9.04891 28.4307ZM9.04891 22.5252C9.55612 22.5227 10.1564 22.9312 10.6293 22.5203C10.9332 22.2988 11.0826 21.91 11.0091 21.5409C11.1267 17.6482 16.7501 17.6433 16.8898 21.5065C16.7158 22.2422 17.4779 22.9336 18.186 22.6531C18.4212 22.567 18.6393 22.5252 18.85 22.5252C21.4326 22.5916 21.4375 26.3957 18.85 26.4622H9.04889C6.46628 26.3957 6.46141 22.5941 9.04891 22.5252Z" fill="black"/>
<path d="M25.7107 20.5567H35.5118C40.7579 20.3795 40.6525 12.7293 35.4138 12.6852C34.3038 7.47358 26.9161 7.47849 25.809 12.6852C20.5654 12.7442 20.4671 20.3797 25.7107 20.5567ZM25.7107 14.6512C26.2179 14.6487 26.8182 15.0572 27.2911 14.6462C27.5949 14.4248 27.7444 14.036 27.6709 13.6669C27.7885 9.77417 33.4119 9.76926 33.5516 13.6324C33.3776 14.3682 34.1396 15.0596 34.8478 14.7791C35.083 14.693 35.3011 14.6511 35.5118 14.6511C38.0944 14.7176 38.0993 18.5192 35.5118 18.5881H25.7106C23.128 18.5217 23.1232 14.7201 25.7107 14.6512Z" fill="black"/>
</svg>
