<?xml version="1.0" standalone="no"?>
<!DOCTYPE svg PUBLIC "-//W3C//DTD SVG 20010904//EN"
 "http://www.w3.org/TR/2001/REC-SVG-20010904/DTD/svg10.dtd">
<svg version="1.0" xmlns="http://www.w3.org/2000/svg"
 width="100.000000pt" height="100.000000pt" viewBox="0 0 100.000000 100.000000"
 preserveAspectRatio="xMidYMid meet">
<metadata>
Created by potrace 1.10, written by Peter Selinger 2001-2011
</metadata>
<g transform="translate(0.000000,100.000000) scale(0.100000,-0.100000)"
fill="#000000" stroke="none">
<path d="M87 912 l-27 -28 0 -342 c0 -376 1 -386 59 -435 l33 -27 370 0 370 0
38 38 c67 66 67 178 0 244 -35 35 -42 38 -94 38 l-56 0 0 264 c0 180 -3 267
-11 272 -6 3 -28 -11 -50 -32 l-39 -38 -40 39 -40 39 -40 -39 -40 -39 -40 39
-40 39 -40 -39 -40 -39 -40 39 -40 39 -40 -39 -40 -39 -38 37 c-21 20 -40 37
-43 37 -3 0 -17 -13 -32 -28z m75 -59 l38 -37 40 39 40 39 40 -39 40 -39 40
39 40 39 40 -39 40 -39 40 39 40 39 40 -39 40 -39 30 29 30 29 0 -237 0 -237
-294 0 c-282 0 -294 -1 -320 -21 l-26 -20 0 259 c0 142 3 262 7 265 11 11 15
9 55 -30z m63 -517 c45 -45 45 -147 0 -192 -30 -30 -55 -30 -88 0 -47 43 -48
146 -2 192 31 30 59 30 90 0z m680 0 c45 -45 45 -147 0 -192 l-24 -24 -311 0
-310 0 17 27 c25 37 25 149 0 186 l-17 27 310 0 311 0 24 -24z"/>
<path d="M180 740 c0 -19 7 -20 140 -20 133 0 140 1 140 20 0 19 -7 20 -140
20 -133 0 -140 -1 -140 -20z"/>
<path d="M520 740 c0 -18 7 -20 70 -20 63 0 70 2 70 20 0 18 -7 20 -70 20 -63
0 -70 -2 -70 -20z"/>
<path d="M180 660 c0 -18 7 -20 70 -20 63 0 70 2 70 20 0 18 -7 20 -70 20 -63
0 -70 -2 -70 -20z"/>
<path d="M380 660 c0 -19 7 -20 140 -20 133 0 140 1 140 20 0 19 -7 20 -140
20 -133 0 -140 -1 -140 -20z"/>
<path d="M180 580 c0 -17 7 -20 50 -20 43 0 50 3 50 20 0 17 -7 20 -50 20 -43
0 -50 -3 -50 -20z"/>
<path d="M340 580 c0 -18 7 -20 70 -20 63 0 70 2 70 20 0 18 -7 20 -70 20 -63
0 -70 -2 -70 -20z"/>
<path d="M540 580 c0 -18 7 -20 60 -20 53 0 60 2 60 20 0 18 -7 20 -60 20 -53
0 -60 -2 -60 -20z"/>
<path d="M180 500 c0 -19 7 -20 110 -20 103 0 110 1 110 20 0 19 -7 20 -110
20 -103 0 -110 -1 -110 -20z"/>
<path d="M460 500 c0 -19 7 -20 100 -20 93 0 100 1 100 20 0 19 -7 20 -100 20
-93 0 -100 -1 -100 -20z"/>
<path d="M151 281 c-15 -27 -14 -63 2 -85 32 -43 81 15 61 72 -12 34 -48 42
-63 13z"/>
</g>
</svg>
