<?xml version="1.0" standalone="no"?>
<!DOCTYPE svg PUBLIC "-//W3C//DTD SVG 20010904//EN"
 "http://www.w3.org/TR/2001/REC-SVG-20010904/DTD/svg10.dtd">
<svg version="1.0" xmlns="http://www.w3.org/2000/svg"
 width="50.000000pt" height="50.000000pt" viewBox="0 0 50.000000 50.000000"
 preserveAspectRatio="xMidYMid meet">
<metadata>
Created by potrace 1.10, written by Peter Selinger 2001-2011
</metadata>
<g transform="translate(0.000000,50.000000) scale(0.100000,-0.100000)"
fill="#000000" stroke="none">
<path d="M445 479 c-11 -11 -32 -23 -46 -26 -31 -6 -389 -360 -389 -384 0 -9
11 -26 25 -39 23 -22 28 -22 66 -11 44 13 129 90 129 116 0 20 10 19 26 -2 13
-17 17 -14 58 29 37 38 47 44 57 32 33 -40 74 4 57 63 -7 26 -4 43 12 80 19
41 40 164 29 162 -2 0 -13 -9 -24 -20z m-14 -103 c-20 -59 -89 -162 -135 -206
l-27 -24 -42 42 -42 42 102 102 c134 134 159 117 30 -20 -28 -29 -47 -55 -43
-59 10 -10 94 76 124 127 52 91 66 89 33 -4z m-25 -174 c-4 -3 -12 0 -18 6 -9
9 -8 18 2 39 l14 28 4 -33 c2 -19 1 -37 -2 -40z m-206 -12 c26 -26 26 -29 -11
-79 -19 -27 -47 -50 -76 -63 l-45 -20 -21 21 -21 21 69 70 c38 39 73 70 77 70
5 0 17 -9 28 -20z"/>
<path d="M320 121 c-17 -42 -10 -66 20 -66 30 0 37 24 20 66 -16 37 -24 37
-40 0z"/>
</g>
</svg>
