<svg width="97" height="80" viewBox="0 0 97 80" fill="none" xmlns="http://www.w3.org/2000/svg">
<g clip-path="url(#clip0_27_957)">
<path d="M43.6364 43.3543C43.5918 43.2422 42.5248 40.565 39.9 38.2498C37.4711 36.1057 33.207 33.8947 26.6886 35.5274C26.3782 35.6041 26.1842 35.9149 26.2463 36.2335C26.2909 36.4656 27.4122 41.9518 31.977 44.4381C33.4146 45.221 35.0228 45.6125 36.7882 45.6125C38.767 45.6125 40.9456 45.1207 43.3086 44.1391C43.6112 44.0132 43.7586 43.6631 43.6364 43.3543ZM32.5513 43.3759C29.2921 41.6056 27.967 37.9665 27.5635 36.564C32.1225 35.5667 35.9948 36.4283 39.0813 39.131C40.8215 40.6555 41.8361 42.3885 42.2726 43.252C38.4081 44.7391 35.1392 44.7804 32.5513 43.3759Z" fill="black"/>
<path d="M53.8622 25.0392C56.0175 19.2108 52.8184 13.4178 52.6807 13.1739C52.5216 12.8926 52.1744 12.7864 51.8892 12.9359C47.4931 15.2255 44.5191 18.3846 43.0467 22.3227C42.9303 22.6354 43.0855 22.9856 43.3939 23.1036C43.7024 23.2216 44.0477 23.0643 44.1641 22.7515C45.4697 19.26 48.0713 16.4176 51.9047 14.2971C52.6012 15.798 54.351 20.2828 52.7408 24.6222C51.5206 27.9111 48.6397 30.4604 44.1738 32.2091C44.2533 30.8991 44.2339 28.4481 43.3648 25.7119C42.195 22.0296 39.2035 17.1375 31.5968 14.7456C31.2922 14.6492 30.9663 14.8144 30.8576 15.1173C30.7645 15.3809 28.5898 21.6381 31.7151 26.9846C33.7599 30.482 37.572 32.7225 43.0486 33.651C44.1563 36.6232 44.7209 39.5049 44.7228 42.2254C44.7228 44.1295 44.4202 48.8996 41.5839 52.0784C41.3627 52.3262 41.3821 52.7098 41.6266 52.9341C41.741 53.0383 41.8846 53.0894 42.0262 53.0894C42.1892 53.0894 42.3521 53.0226 42.4685 52.8908C45.5822 49.4012 45.9159 44.2692 45.9159 42.2254C45.914 39.4361 45.3572 36.4934 44.2592 33.472C49.2566 31.5915 52.4867 28.7569 53.8622 25.0392ZM32.7472 26.3788C30.4173 22.3994 31.3814 17.6863 31.8141 16.091C37.1859 17.9283 40.6837 21.2723 42.2144 26.0385C43.1029 28.8022 43.0486 31.3023 42.9613 32.4098C38.0046 31.5187 34.5708 29.4906 32.7472 26.3788Z" fill="black"/>
<path d="M63.6242 43.5838C64.7591 41.8587 65.5895 38.9495 64.732 36.6421C64.2256 35.2789 63.1916 34.3505 61.7444 33.959C59.6162 33.3807 57.6452 34.3701 55.8778 36.8958C54.1085 34.3701 52.1356 33.3807 50.0074 33.959C48.5621 34.3505 47.53 35.2789 47.0237 36.6401C46.1642 38.9475 46.9946 41.8568 48.1275 43.5838C50.18 46.7036 53.2627 49.6896 55.4879 51.6449C55.6004 51.7432 55.7401 51.7924 55.8798 51.7924C56.0194 51.7924 56.1591 51.7432 56.2716 51.6429C58.5026 49.6798 61.5872 46.6859 63.6242 43.5838ZM55.8798 50.384C53.7516 48.4818 50.9851 45.7437 49.1227 42.9131C48.1217 41.3886 47.4621 38.8904 48.1411 37.067C48.5116 36.0716 49.243 35.4186 50.3158 35.1275C50.5894 35.0527 50.861 35.0173 51.1306 35.0173C52.607 35.0173 54.029 36.1208 55.3715 38.3102C55.4801 38.4872 55.6722 38.5954 55.8778 38.5954C56.0835 38.5954 56.2755 38.4872 56.3842 38.3082C57.9691 35.7176 59.6666 34.6475 61.434 35.1255C62.5087 35.4166 63.2421 36.0697 63.6126 37.067C64.2916 38.8904 63.632 41.3866 62.629 42.9091C60.7841 45.7279 58.0118 48.472 55.8798 50.384Z" fill="black"/>
<path d="M78.7019 39.3057C78.7019 39.3057 76.7697 37.4979 74.9616 35.8181C74.1992 35.1099 73.7685 34.1048 73.7782 33.0603C73.8054 30.389 73.656 24.7258 72.8994 22.4086C72.8994 22.4067 72.8974 22.4047 72.8974 22.4027C72.8955 22.3968 72.8936 22.3909 72.8916 22.385C71.6229 18.508 69.5956 15.0007 66.866 11.9655C61.2749 5.75355 53.3054 2.30923 45.0061 2.51774C37.8494 2.69674 30.974 5.77125 25.6468 11.1787C20.3196 16.5842 17.2893 23.5594 17.1186 30.8139C16.9071 39.7522 20.6765 48.1515 27.4588 53.858C30.3591 56.2971 31.5308 60.2017 30.4464 63.8074C29.4938 66.9704 28.0175 69.9367 27.2201 71.4238C27.063 71.7169 27.1697 72.0847 27.4607 72.2441C27.7498 72.4034 28.1125 72.2952 28.2697 72.0002C29.0864 70.4737 30.6054 67.4228 31.5871 64.1595C32.8132 60.0877 31.492 55.6775 28.2192 52.9256C21.7202 47.4572 18.108 39.408 18.3117 30.8414C18.6492 16.4957 30.8887 4.07958 45.0352 3.72551C52.9892 3.53077 60.625 6.82756 65.9833 12.7799C68.6003 15.6892 70.5423 19.0489 71.7587 22.7647C71.7587 22.7666 71.7606 22.7706 71.7606 22.7725C71.7625 22.7784 71.7645 22.7824 71.7664 22.7883C72.4221 24.7966 72.6142 30.0231 72.5851 33.0465C72.5715 34.4352 73.1438 35.7689 74.1546 36.7092C75.9588 38.3871 77.8871 40.1908 77.8871 40.1908C78.5622 40.8321 78.8358 41.7606 78.6224 42.6713C78.409 43.5801 77.7533 44.2804 76.8686 44.544L74.463 45.26C74.1623 45.3504 73.9819 45.6593 74.0479 45.9681L74.851 49.7232L72.9227 51.4306C72.7034 51.6234 72.6549 51.948 72.8043 52.1997L73.9489 54.1176L73.0041 55.9922C72.9265 56.1457 72.9168 56.3247 72.9789 56.484L74.2263 59.7808C74.6299 60.8509 74.5639 62.0468 74.044 63.0638C73.5279 64.0729 72.6123 64.8086 71.5297 65.0859C69.8497 65.5167 64.5128 65.916 60.3243 66.0498C58.9256 66.095 57.7111 66.9861 57.2319 68.3198C56.8498 69.38 56.4598 70.4482 56.0718 71.4927C55.9554 71.8054 56.1126 72.1536 56.421 72.2716C56.4909 72.2972 56.5607 72.311 56.6305 72.311C56.8711 72.311 57.1 72.1615 57.1893 71.9195C57.5792 70.8711 57.9691 69.799 58.3533 68.7348C58.6656 67.8674 59.4532 67.2891 60.3631 67.2595C63.954 67.1435 69.8846 66.756 71.8227 66.2583C73.235 65.8964 74.43 64.9345 75.1032 63.6205C75.7803 62.2967 75.8676 60.7387 75.3419 59.3461L74.1895 56.3011L75.1634 54.3674C75.2565 54.1806 75.2487 53.9583 75.142 53.7793L74.0847 52.0089L75.9025 50.4019C76.0655 50.2563 76.1392 50.032 76.0926 49.8176L75.3322 46.2632L77.2043 45.7045C78.5041 45.317 79.4682 44.2882 79.7825 42.9506C80.0987 41.615 79.6952 40.2518 78.7019 39.3057Z" fill="black"/>
</g>
<defs>
<clipPath id="clip0_27_957">
<rect width="97" height="80" fill="white"/>
</clipPath>
</defs>
</svg>
