<svg width="103" height="93" viewBox="0 0 103 93" fill="none" xmlns="http://www.w3.org/2000/svg">
<path d="M84.6969 66.6482C72.0157 37.4575 71.1599 35.6332 69.6233 34.6571C68.6284 34.0186 67.6884 34.2939 66.8764 34.6828C66.5545 32.9251 66.229 32.1362 66.1339 31.8169C65.812 30.8188 65.3255 29.3106 64.2612 29.0061C63.9137 28.907 63.3687 28.8997 62.7396 29.4354C61.8398 30.2097 61.8252 31.3473 60.4426 32.705C60.3219 31.7252 60.1024 31.2372 59.8427 30.5767C59.5977 29.9455 59.3453 29.2887 58.8369 28.6906C58.6723 28.5034 58.4711 28.2942 58.2041 28.1511C57.8676 27.9677 57.4616 27.9273 57.0995 28.0484C56.2948 28.3419 56.09 29.3804 55.8486 29.7143C55.3073 30.4519 54.5062 31.0647 53.6613 31.6812C51.2326 33.4646 48.4273 34.6241 45.5011 35.0609C45.5816 30.3895 43.793 25.4471 40.0512 21.8727C38.9356 20.8012 38.3065 20.4306 37.7907 20.0013C36.9385 19.293 36.1082 18.6765 35.3583 18.8527C35.0255 18.9297 34.7548 19.1609 34.5939 19.5205C34.2245 20.4379 35.0255 20.8305 35.2449 23.1974C33.8807 20.7315 31.3824 19.1976 28.6648 19.0032C27.7212 18.9445 27.4139 19.4692 27.3261 19.7114C27.0957 20.3903 27.8345 21.293 27.9735 21.6452C28.5661 23.1387 28.8184 24.8891 28.8623 26.4743C27.9772 24.2579 26.441 22.3094 24.5207 20.9773C24.5097 20.9333 24.5134 20.8966 24.4951 20.8489C24.3707 20.5113 24.1988 20.2544 23.983 20.071C23.0869 19.2857 21.8543 18.9481 20.6948 19.1609C19.8316 19.3114 19.8133 20.0563 19.806 20.3866C19.6743 26.489 19.3597 40.9471 19.1915 48.5759C19.1366 51.1446 19.3927 51.673 20.1571 53.1701C20.1168 53.0894 35.4713 83.3002 36.3899 84.5008C38.1346 86.7649 41.3862 87.7299 44.3344 87.7299C46.8326 87.7299 48.676 87.1428 50.3073 86.7282C51.4266 86.4456 52.5824 86.152 53.7309 85.642C66.6751 79.8846 73.0649 77.1214 79.9603 73.5257C81.4599 72.7368 83.6984 72.0102 84.8213 70.4507C85.7869 69.093 85.1834 67.7381 84.6969 66.6482ZM62.8094 31.513C63.124 30.8928 63.2776 30.5883 63.5336 30.3681C63.6141 30.302 63.8079 30.1479 63.9287 30.1846C64.4224 30.324 64.9235 32.0341 65.0699 32.4853C65.3735 33.366 65.5856 34.2944 65.7392 35.2412C65.6551 35.2815 60.5673 37.6887 60.4283 37.7548C59.7809 37.1016 59.0456 36.5475 58.2483 36.1476C58.8665 35.6742 59.481 35.1421 60.0881 34.555C60.1466 34.533 60.2051 34.5073 60.2564 34.467C61.4414 33.5753 62.1546 32.7459 62.8094 31.513ZM56.8693 41.7139C56.2438 40.5873 56.4304 40.8112 56.2182 40.3855C56.2182 40.3855 56.2182 40.3818 56.2146 40.3818C55.7318 39.4424 54.4698 38.3049 52.9812 37.8425C52.1729 37.571 51.2987 37.4756 50.4354 37.593C52.3045 36.2683 55.0697 36.1656 56.8071 36.8628C58.5189 37.4499 59.9381 38.6865 60.7867 40.2167C62.8496 43.9046 61.5767 49.3281 64.8759 52.7961C66.884 54.9171 69.5797 55.1777 71.0501 58.8654C70.8709 58.7444 70.6844 58.6233 70.4869 58.5095C70.4649 58.4985 68.3033 57.3609 67.696 57.6105C67.5241 57.6802 67.3742 57.8453 67.3193 58.0251C67.2937 58.1169 65.7428 63.4193 65.7209 63.5C65.0552 61.4707 63.9543 59.5516 62.4509 57.7939C57.674 52.1943 59.96 47.3211 56.8693 41.7139ZM32.1072 50.5867C32.5827 48.6896 33.6873 46.8511 35.2235 45.4568C37.3998 43.4569 40.4247 42.0955 44.4701 41.2919C48.3911 40.525 49.5286 40.6681 52.8133 39.0939C53.4972 39.3434 54.1666 39.7507 54.7555 40.4149C52.1805 41.6184 38.106 48.2419 35.1433 49.6254C33.885 50.2308 33.3288 50.5794 32.1072 50.5867ZM54.3786 32.6725C55.2674 32.0267 56.1891 31.3221 56.8365 30.4378C57.0852 30.0928 57.3705 29.2635 57.5059 29.2048C57.6302 29.1644 57.8387 29.3993 57.9228 29.4984C58.391 30.0451 58.5959 30.757 58.8958 31.4873C59.1445 32.1001 59.2726 32.8523 59.2799 33.6376C58.4971 34.3972 57.7034 35.0577 56.9098 35.6082C54.9529 35.0137 52.7034 35.1128 51.0026 35.8834C49.2177 36.6907 48.2447 37.7695 47.7656 39.4648C44.6236 40.0593 38.6543 40.6464 34.4037 44.5545C32.6371 46.1617 31.3788 48.3084 30.8777 50.5175L30.3766 50.4734C30.2925 50.2679 30.2084 50.0478 30.1242 49.8129C30.0438 48.0846 30.3437 46.3269 31.0131 44.76C32.0738 42.2868 34.9231 40.4777 37.2823 39.1824C39.8682 37.7696 42.7322 36.8339 45.567 36.4743C45.7425 36.4523 45.8852 36.3569 45.9803 36.2248C48.9942 35.722 51.8767 34.5072 54.3786 32.6725ZM37.3742 21.2419C42.0487 24.5591 44.481 30.0341 44.258 35.4315C41.6574 35.8938 39.0677 36.8075 36.7012 38.0992C34.1665 39.49 31.105 41.4494 29.8943 44.2676C29.6603 44.818 29.4664 45.3868 29.3128 45.9703C28.7897 39.8569 31.5512 36.7157 33.8629 32.753C34.8908 31.0026 36.0502 28.7019 36.2441 26.1589C36.2807 26.0929 36.3173 26.0158 36.3319 25.9204C36.6721 24.0563 36.4928 22.1298 35.8235 20.3427C35.7942 20.2694 35.7503 20.1483 35.7284 20.0675C36.1856 20.218 37.1072 21.0548 37.3742 21.2419ZM28.5885 20.2255C30.1686 20.3429 31.6683 20.9924 32.8204 22.0639C34.7699 23.8693 34.9272 26.0417 35.015 26.2875C34.5542 30.8047 30.9111 34.3421 29.1847 38.5879C27.7399 42.129 27.6485 46.3012 28.9177 50.0401C28.925 50.1428 28.9286 50.2456 28.9359 50.3447L26.6536 50.1502C25.6184 47.6182 25.4355 44.4771 26.1744 41.4608C26.5511 39.9526 28.4531 35.0758 28.9432 33.6631C30.7904 28.3276 30.1173 22.9155 28.8408 20.6882C28.7713 20.5744 28.6653 20.387 28.5885 20.2255ZM28.0691 27.9278C28.2922 28.7131 28.4641 29.3736 28.6031 29.9974C28.4166 31.1826 28.1276 32.2725 27.7875 33.2596C27.2242 34.8889 25.4099 39.4648 24.9857 41.1638C24.2761 44.059 24.32 47.2221 25.2783 49.9889C24.7406 49.8972 24.2724 49.754 23.9432 49.4421C23.508 49.0238 23.508 48.5138 23.5409 47.6515C24.8576 13.2208 24.4224 25.044 24.5028 22.4973C26.1744 23.8808 27.4509 25.8032 28.0691 27.9278ZM21.2365 52.6122C20.527 51.2288 20.3587 50.8949 20.4063 48.6052C21.2475 10.1379 21.0207 23.08 21.0207 20.3538C21.8291 20.2437 22.6118 20.508 23.1824 21.0033C23.2227 21.04 23.2849 21.1134 23.3287 21.3042C23.2519 23.0289 22.3229 47.5227 22.3192 47.6073C22.2863 48.499 22.2461 49.5044 23.0983 50.33C23.9871 51.1777 25.1247 51.2034 26.2219 51.3428C30.3222 51.695 31.3427 51.7831 31.2586 51.7758C31.3427 51.7905 32.1364 51.8492 32.846 51.7574L36.7451 59.713C32.2864 63.9402 27.4181 62.8798 26.3393 62.5715C25.1103 60.179 20.9731 52.1022 21.2365 52.6122ZM27.0633 63.9836C29.1664 64.3322 33.3728 64.424 37.3118 60.8755L39.938 66.2293C38.7748 67.2788 34.5721 70.7318 30.1829 70.0639C25.9071 61.7341 27.3814 64.6075 27.0633 63.9836ZM30.8417 71.3557C34.3421 71.5465 37.8644 69.6861 40.4975 67.3743L42.3153 71.0841C38.8771 75.1022 34.0819 75.2527 32.8196 75.2123C32.7758 75.1279 32.7729 75.1243 30.8417 71.3557ZM45.6081 77.8104C45.3045 78.4415 43.6623 80.757 35.8381 81.2157C35.0407 79.6048 35.1285 79.6965 33.4496 76.4453C35.3991 76.405 39.5945 75.8655 42.9013 72.2841C42.9415 72.3648 45.7873 78.1736 45.6081 77.8104ZM48.8196 85.8466C46.3908 86.5181 44.1524 86.6759 42.1699 86.3163C40.9373 86.0925 38.6695 85.4613 37.3528 83.7513C37.0309 83.3293 36.7456 82.8706 36.4749 82.3972C42.7624 81.9459 45.2533 80.2763 46.2375 79.0874L49.4635 85.6778C49.2477 85.7365 49.0354 85.7879 48.8196 85.8466ZM83.8237 69.7341C83.147 70.6735 81.7754 71.3083 80.5646 71.8697C77.1484 73.4513 77.5544 73.7081 61.7718 80.7096C53.0446 84.4892 53.4946 84.6287 50.6712 85.3662C47.105 78.0822 37.6277 58.74 34.062 51.4559C34.7021 51.2174 50.1562 43.9188 55.368 41.4824C56.3227 43.5006 56.8604 43.4713 57.6614 48.8655C57.8625 50.2012 58.0674 51.5809 58.4514 52.9166C59.0586 54.9825 60.123 56.9494 61.5312 58.6007C62.9687 60.285 64.0111 62.1198 64.6183 64.0463C64.6915 64.2885 64.8268 64.7398 65.2109 65.0187C65.7741 65.4334 66.5496 65.3783 66.8203 64.1711C67.1605 62.9345 67.9249 60.3621 68.3455 58.9126C68.8759 59.1108 69.7062 59.4814 69.8927 59.5805C70.5767 59.9841 70.8657 60.2667 70.9497 60.3327C71.9153 61.2061 72.5372 60.652 72.6469 59.9878V59.9841C72.7274 59.4594 72.358 58.8282 72.1933 58.4283C70.2731 53.5956 66.6849 53.9955 64.8634 50.715C62.8773 47.1409 63.9673 42.3926 61.2753 38.7162C61.7873 38.474 66.4984 36.2539 66.8861 36.0595C68.287 35.3145 68.9527 35.0797 70.083 37.0539C71.0779 38.7492 71.8972 40.584 72.6909 42.36C77.5301 53.1818 80.4451 59.9295 83.5874 67.1581C84.0812 68.2663 84.3592 68.9855 83.8251 69.7341L83.8237 69.7341Z" fill="black"/>
<path d="M48.6141 69.1008C48.4788 68.7926 48.1167 68.6494 47.8094 68.7889C47.5022 68.9246 47.3632 69.2879 47.4985 69.5962L52.0743 79.9107C52.2133 80.2226 52.579 80.3584 52.879 80.2226C53.1862 80.0869 53.3252 79.7236 53.1899 79.4153L48.6141 69.1008Z" fill="black"/>
<path d="M46.5766 65.3933C46.4193 65.0924 46.0499 64.9786 45.7536 65.1364C45.4537 65.2942 45.3403 65.6648 45.4976 65.9621L46.1011 67.1143C46.2108 67.3235 46.423 67.4409 46.6424 67.4409C47.0996 67.4409 47.3959 66.9529 47.1838 66.5419L46.5766 65.3933Z" fill="black"/>
<path d="M52.751 28.2031L52.8315 28.2251C53.5154 28.4343 53.819 28.2324 54.247 27.6857C55.0882 26.6619 55.9624 25.6051 56.5147 24.3208C57.4255 22.2218 57.2682 19.6128 55.2053 18.6881C53.8154 18.0643 52.1 18.6074 51.372 20.0972C48.2484 18.3431 45.6514 21.6787 47.451 24.7134C48.4825 26.4492 50.8014 27.7187 52.751 28.2031ZM50.3296 20.9668C50.6186 21.0623 50.8234 21.187 51.3904 21.5503C51.7634 21.7888 52.2572 21.5576 52.3194 21.121C52.4877 19.9908 53.691 19.3486 54.7115 19.8073C56.1929 20.4715 55.9186 22.6292 55.3992 23.8365C54.7664 25.2969 53.4204 26.728 53.1936 27.0546C52.6632 26.9225 52.2938 26.7978 52.0049 26.6877C50.7356 26.2033 49.2067 25.2676 48.5081 24.0897C47.4693 22.3503 48.4642 20.3467 50.3296 20.9668Z" fill="black"/>
<path d="M62.3777 18.4508C63.0617 18.7113 63.5336 18.8177 63.7896 18.8911C64.4041 19.0782 64.7589 18.9938 65.2417 18.381C66.2293 17.1811 67.2023 15.9958 67.8204 14.5721C68.8225 12.2567 68.6543 9.38342 66.3939 8.37057C64.8541 7.6807 62.9411 8.29718 62.1693 9.98144C58.7055 7.98157 55.8196 11.6364 57.8167 15.0014C58.7531 16.5719 60.6769 17.8013 62.3777 18.4508ZM60.9915 10.7741C61.3426 10.8915 61.6462 11.086 62.001 11.3135C62.0961 11.3539 62.3814 11.6548 62.7764 11.475C62.9629 11.3869 63.0946 11.2145 63.1239 11.009C63.3141 9.71365 64.7003 8.95039 65.8963 9.48613C67.6008 10.2494 67.2936 12.7116 66.701 14.0803C65.9878 15.7279 64.4845 17.3205 64.1955 17.7315C63.8297 17.6177 63.5079 17.5663 62.8129 17.3021C61.3828 16.7591 59.6599 15.7023 58.8663 14.3702C57.6812 12.374 58.8262 10.0696 60.9915 10.7741Z" fill="black"/>
<path d="M20.9661 17.9294C21.5404 17.9294 21.7964 17.2029 21.3502 16.8396L18.6618 14.6599C18.3984 14.447 18.0144 14.4874 17.8022 14.7516C17.5901 15.0158 17.6303 15.4011 17.8937 15.6139C20.6552 17.79 20.5821 17.9294 20.9661 17.9294Z" fill="black"/>
<path d="M23.307 16.5646H23.3253C23.6618 16.5535 23.9288 16.271 23.9179 15.9334L23.8447 13.4931C23.8337 13.1555 23.5558 12.8767 23.2156 12.8987C22.8791 12.9097 22.6121 13.1922 22.623 13.5298L22.6962 15.9701C22.7072 16.3004 22.9778 16.5646 23.307 16.5646Z" fill="black"/>
</svg>
