<svg width="111" height="100" viewBox="0 0 111 100" fill="none" xmlns="http://www.w3.org/2000/svg">
<path d="M91.1968 35.416L89.7218 33.9496C89.8581 33.5973 89.958 33.239 90.0156 32.8717C90.167 31.857 90.0277 30.3273 88.5042 28.8127C86.9504 27.2681 84.6453 27.5481 82.9795 28.7284C81.3136 27.5481 79.0116 27.2681 77.4548 28.8127C76.6946 29.5685 76.2796 30.3273 76.0706 31.0259H61.853C59.6086 31.0259 57.6822 31.863 55.9921 33.5763C54.3019 31.863 52.3756 31.0259 50.1312 31.0259H25.6249C25.3492 31.0259 25.1009 31.1373 24.9191 31.318L20.7938 35.4191C20.606 35.6058 20.5 35.8587 20.5 36.1207V74.7438C20.5 76.5715 21.9963 78.062 23.8378 78.062H50.3617C51.3279 78.062 51.861 78.607 52.6515 79.4953C53.3997 80.3385 54.3326 81.3863 55.9288 81.4977C55.9531 81.5008 56.0469 81.5008 56.0712 81.4977C57.6674 81.3863 58.5973 80.3355 59.3485 79.4953C60.139 78.6071 60.6721 78.062 61.6383 78.062H88.1622C90.0007 78.062 91.5 76.5745 91.5 74.7438V36.1207C91.5 35.8587 91.394 35.6058 91.2062 35.4191L91.1968 35.416ZM78.8665 30.2158C79.2088 29.8756 79.6388 29.728 80.0962 29.728C80.8504 29.728 81.6743 30.1285 82.2709 30.7247C82.6617 31.1132 83.2917 31.1132 83.6824 30.7247C84.6456 29.7672 86.1843 29.3126 87.0898 30.2159C87.8531 30.9746 88.1621 31.7485 88.0409 32.5796C87.7169 34.7506 84.6183 36.9879 82.9797 37.9574C81.3381 36.9909 78.2395 34.7537 77.9185 32.5796C77.7943 31.7485 78.1063 30.9747 78.8696 30.2159L78.8665 30.2158ZM61.8559 33.0101H75.9704C76.6489 36.762 81.907 39.6496 82.5098 39.9718C82.6582 40.0501 82.8187 40.0892 82.9792 40.0892C83.1398 40.0892 83.3033 40.0501 83.4487 39.9718C83.6577 39.8604 84.427 39.4418 85.369 38.7854V71.8622H61.856C59.8964 71.8622 58.3486 72.8047 56.9917 73.8405V35.431C58.4182 33.7839 59.9721 33.0131 61.856 33.0131L61.8559 33.0101ZM26.6212 33.0101H50.1343C52.0152 33.0101 53.569 33.781 54.9986 35.428V73.8407C53.6447 72.8048 52.097 71.8624 50.1343 71.8624L26.6212 71.8594V33.0101ZM89.4948 74.7413C89.4948 75.476 88.8921 76.0752 88.153 76.0752H61.6291C59.7148 76.0752 58.679 77.2405 57.846 78.18C57.1615 78.9508 56.6981 79.4356 55.9954 79.5109C55.2927 79.4326 54.8293 78.9478 54.1448 78.18C53.3118 77.2436 52.2759 76.0752 50.3617 76.0752L23.8347 76.0722C23.0957 76.0722 22.4929 75.473 22.4929 74.7382V36.5276L24.6222 34.4108V72.8504C24.6222 73.3984 25.0674 73.8411 25.6187 73.8411H50.1312C51.8577 73.8411 53.2964 75.0033 54.6867 76.1264C54.9199 76.3161 55.1501 76.4998 55.3773 76.6775C55.556 76.816 55.7741 76.8913 55.9921 76.8883C56.1951 76.8853 56.4556 76.7889 56.607 76.6745C56.607 76.6745 57.0644 76.3131 57.2976 76.1264C58.6879 75.0033 60.1265 73.8411 61.853 73.8411H86.3655C86.9168 73.8411 87.3621 73.3984 87.3621 72.8504V37.1812C87.8376 36.7385 88.2919 36.2508 88.6917 35.7298L89.4944 36.5278L89.4948 74.7413ZM50.0955 39.7912C50.0955 40.3393 49.6503 40.7819 49.099 40.7819H32.5249C31.9737 40.7819 31.5284 40.3393 31.5284 39.7912C31.5284 39.2432 31.9736 38.8006 32.5249 38.8006H49.099C49.6502 38.8006 50.0955 39.2432 50.0955 39.7912ZM50.0955 46.238C50.0955 46.7861 49.6503 47.2287 49.099 47.2287H32.5249C31.9737 47.2287 31.5284 46.7861 31.5284 46.238C31.5284 45.69 31.9736 45.2473 32.5249 45.2473H49.099C49.6502 45.2473 50.0955 45.69 50.0955 46.238ZM50.0955 52.6848C50.0955 53.2328 49.6503 53.6755 49.099 53.6755H32.5249C31.9737 53.6755 31.5284 53.2329 31.5284 52.6848C31.5284 52.1368 31.9736 51.6941 32.5249 51.6941H49.099C49.6502 51.6941 50.0955 52.1368 50.0955 52.6848ZM50.0955 59.1316C50.0955 59.6796 49.6503 60.1223 49.099 60.1223H32.5249C31.9737 60.1223 31.5284 59.6797 31.5284 59.1316C31.5284 58.5836 31.9736 58.1409 32.5249 58.1409H49.099C49.6502 58.1409 50.0955 58.5836 50.0955 59.1316ZM50.0955 65.5784C50.0955 66.1264 49.6503 66.5691 49.099 66.5691H32.5249C31.9737 66.5691 31.5284 66.1264 31.5284 65.5784C31.5284 65.0304 31.9736 64.5877 32.5249 64.5877H49.099C49.6502 64.5877 50.0955 65.0303 50.0955 65.5784ZM61.8962 52.6845C61.8962 52.1365 62.3415 51.6938 62.8928 51.6938H79.4668C80.0181 51.6938 80.4633 52.1365 80.4633 52.6845C80.4633 53.2326 80.0181 53.6752 79.4668 53.6752H62.8928C62.3415 53.6752 61.8962 53.2326 61.8962 52.6845ZM61.8962 59.1313C61.8962 58.5833 62.3415 58.1406 62.8928 58.1406H79.4668C80.0181 58.1406 80.4633 58.5832 80.4633 59.1313C80.4633 59.6793 80.0181 60.122 79.4668 60.122H62.8928C62.3415 60.122 61.8962 59.6794 61.8962 59.1313ZM61.8962 65.5781C61.8962 65.0301 62.3415 64.5874 62.8928 64.5874H79.4668C80.0181 64.5874 80.4633 65.03 80.4633 65.5781C80.4633 66.1261 80.0181 66.5688 79.4668 66.5688H62.8928C62.3415 66.5688 61.8962 66.1261 61.8962 65.5781ZM70.7132 48.147C70.8616 48.2253 71.0222 48.2645 71.1827 48.2645C71.3432 48.2645 71.5068 48.2253 71.6522 48.147C72.161 47.879 76.6256 45.425 77.1072 42.2212C77.2375 41.351 77.1193 40.0442 75.8199 38.7524C74.5114 37.4516 72.5972 37.6443 71.1827 38.5898C69.7682 37.6413 67.8509 37.4515 66.5454 38.7524C65.246 40.0442 65.131 41.351 65.2581 42.2212C65.7367 45.4249 70.2043 47.879 70.7132 48.147ZM67.9539 40.1526C68.1902 39.9177 68.4961 39.8154 68.8232 39.8154C69.3926 39.8154 70.0257 40.1225 70.4739 40.5681C70.8647 40.9566 71.4947 40.9566 71.8854 40.5681C72.5911 39.8666 73.7573 39.5052 74.4084 40.1526C75.1778 40.9174 75.1899 41.5317 75.1323 41.9262C74.884 43.5913 72.5154 45.3287 71.1826 46.1296C69.8499 45.3287 67.4814 43.5913 67.2329 41.9262C67.1754 41.5317 67.1845 40.9204 67.9568 40.1526H67.9539ZM69.014 29.9235C69.1624 30.0018 69.323 30.041 69.4835 30.041C69.644 30.041 69.8076 30.0018 69.953 29.9235C70.268 29.7579 77.6524 25.7893 78.3885 20.8569C78.6611 19.0261 78.025 17.3249 76.4954 15.8042C75.4596 14.7745 74.039 14.3318 72.4912 14.5576C71.4432 14.7112 70.3862 15.1719 69.4836 15.8554C68.5809 15.1719 67.5209 14.7082 66.4759 14.5576C64.9281 14.3318 63.5076 14.7744 62.4717 15.8042C60.9421 17.3249 60.306 19.0261 60.5786 20.8569C61.3177 25.789 68.7023 29.7578 69.014 29.9235ZM63.8801 17.2077C64.4495 16.6446 65.1219 16.485 65.6943 16.485C65.867 16.485 66.0336 16.5001 66.182 16.5212C67.0997 16.6567 68.0447 17.1475 68.7747 17.8732C68.9625 18.0598 69.217 18.1652 69.4805 18.1652C69.744 18.1652 69.9984 18.0598 70.1862 17.8732C70.9162 17.1475 71.8612 16.6537 72.779 16.5212C73.4211 16.4278 74.3419 16.47 75.084 17.2077C76.1562 18.2736 76.5924 19.3727 76.4136 20.5621C75.9623 23.5943 71.625 26.6717 69.4805 27.9122C67.3361 26.6747 63.0017 23.5943 62.5474 20.5621C62.3687 19.3697 62.8049 18.2736 63.8771 17.2077L63.8801 17.2077Z" fill="black"/>
</svg>
