<svg width="93" height="100" viewBox="0 0 93 100" fill="none" xmlns="http://www.w3.org/2000/svg">
<path d="M46.5 58.7922C50.8726 58.7922 54.4261 55.2302 54.4261 50.8473C54.4261 46.4643 50.8726 42.9023 46.5 42.9023C42.1274 42.9023 38.5739 46.4643 38.5739 50.8473C38.5739 55.2302 42.1274 58.7922 46.5 58.7922ZM46.5 45.5506C49.4194 45.5506 51.7841 47.9209 51.7841 50.8473C51.7841 53.7736 49.4194 56.1439 46.5 56.1439C43.5806 56.1439 41.2159 53.7736 41.2159 50.8473C41.2159 47.9209 43.5806 45.5506 46.5 45.5506Z" fill="black"/>
<path d="M43.8579 52.1716C44.5845 52.1716 45.179 51.5757 45.179 50.8475C45.179 50.1192 45.7734 49.5233 46.5 49.5233C47.2266 49.5233 47.821 48.9274 47.821 48.1992C47.821 47.4709 47.2266 46.875 46.5 46.875C44.3203 46.875 42.5369 48.6626 42.5369 50.8475C42.5369 51.5757 43.1314 52.1716 43.8579 52.1716Z" fill="black"/>
<path d="M72.4842 50.8477C75.3905 47.6035 77.4381 44.3461 78.3627 41.3401C79.2082 38.5594 79.0761 36.1096 78.006 34.0969C77.9928 34.0572 77.9532 33.991 77.9268 33.9513C77.5833 33.3554 76.8568 33.17 76.2227 33.4878C75.5754 33.8188 75.3376 34.6531 75.6546 35.3151C76.4076 36.732 76.4605 38.4931 75.8396 40.572C75.047 43.1673 73.2372 46.0275 70.6744 48.9274C68.1777 46.4248 65.1921 43.9618 61.8495 41.6445C61.4664 38.2282 60.8587 35.0105 60.0661 32.097C61.255 31.8852 62.3911 31.7528 63.5008 31.6601C64.0952 33.9376 66.1428 35.6193 68.5867 35.6193C71.5061 35.6193 73.8708 33.2491 73.8708 30.3227C73.8708 27.3963 71.5061 25.0261 68.5867 25.0261C66.1296 25.0261 64.082 26.721 63.4876 28.9985C62.1401 29.1045 60.7399 29.2766 59.3 29.5414C56.4334 20.7355 51.8097 15.1084 46.4989 15.1084C41.1881 15.1084 36.5648 20.7228 33.6979 29.5152C24.6093 27.9262 17.5024 29.3828 14.9922 34.0967C14.913 34.2556 14.8337 34.4277 14.7677 34.5866C14.4902 35.262 14.8205 36.0299 15.4942 36.308C16.1679 36.586 16.9341 36.255 17.2115 35.5797C17.2511 35.4738 17.304 35.3811 17.3304 35.3149C19.2327 31.7396 25.2169 30.7466 32.9189 32.0707C32.1263 34.9971 31.5318 38.2148 31.1355 41.6444C27.7933 43.9617 24.8078 46.4246 22.3106 48.9405C21.954 48.5433 21.6501 48.1461 21.3331 47.7621C22.1654 46.8219 22.6938 45.6037 22.6938 44.2399C22.6938 41.3135 20.3291 38.9433 17.4097 38.9433C14.4903 38.9433 12.1256 41.3135 12.1256 44.2399C12.1256 47.1662 14.4903 49.5365 17.4097 49.5365C18.0174 49.5365 18.5854 49.4173 19.1138 49.2319C19.5497 49.7748 19.9989 50.3177 20.4877 50.8739C17.5814 54.118 15.5338 57.3755 14.6223 60.3815C13.7769 63.1622 13.909 65.6119 14.9922 67.6644C16.8416 71.1469 21.2142 72.8418 27.0535 72.8418C29.1011 72.8418 31.3336 72.6167 33.6982 72.193C33.9756 73.0537 34.2663 73.8615 34.5701 74.6427C33.4207 75.6093 32.681 77.0527 32.681 78.6681C32.681 81.5944 35.0456 83.9647 37.9651 83.9647C40.8845 83.9647 43.2492 81.5944 43.2492 78.6681C43.2492 75.7417 40.8845 73.3715 37.9651 73.3715C37.6216 73.3715 37.2781 73.4112 36.9479 73.4774C36.7233 72.8948 36.512 72.2989 36.3006 71.6766C39.5239 70.935 42.9454 69.836 46.4723 68.3927C49.9994 69.836 53.4209 70.935 56.6575 71.6766C54.2136 79.1183 50.5279 83.9647 46.4723 83.9647C46.0099 83.9647 45.5343 83.8985 45.0456 83.7528C44.3454 83.5542 43.6189 83.9515 43.4075 84.6533C43.2093 85.3551 43.6057 86.0833 44.3058 86.2952C45.0456 86.5071 45.7457 86.613 46.4723 86.613C51.7827 86.613 56.4064 80.9986 59.2733 72.1927C61.6247 72.6032 63.8573 72.8283 65.8916 72.8283C71.7305 72.8283 76.1165 71.1333 77.9529 67.6508C79.0493 65.5983 79.1682 63.1487 78.3359 60.3679C77.4245 57.3621 75.3637 54.1047 72.4574 50.8603L72.4842 50.8477ZM68.5872 27.6621C70.0403 27.6621 71.2292 28.8538 71.2292 30.3104C71.2292 31.767 70.0403 32.9587 68.5872 32.9587C67.134 32.9587 65.9451 31.767 65.9451 30.3104C65.9451 28.8538 67.134 27.6621 68.5872 27.6621ZM14.7816 44.2273C14.7816 42.7707 15.9705 41.579 17.4236 41.579C18.8768 41.579 20.0657 42.7707 20.0657 44.2273C20.0657 45.684 18.8768 46.8757 17.4236 46.8757C15.9705 46.8757 14.7816 45.684 14.7816 44.2273ZM40.6339 78.6553C40.6339 80.1119 39.445 81.3036 37.9919 81.3036C36.5387 81.3036 35.3498 80.1119 35.3498 78.6553C35.3498 77.1987 36.5387 76.007 37.9919 76.007C39.445 76.007 40.6339 77.1987 40.6339 78.6553ZM68.8374 50.8485C66.8955 52.7818 64.6498 54.7151 62.1663 56.5689C62.2984 54.7151 62.3644 52.8083 62.3644 50.8485C62.3644 48.8888 62.2984 46.9952 62.1663 45.1282C64.663 46.982 66.9088 48.902 68.8374 50.8485ZM33.2886 50.8485C33.2886 48.2002 33.4207 45.6181 33.6717 43.1287C35.7589 41.7251 37.9783 40.3877 40.29 39.1562C42.364 38.0572 44.438 37.0773 46.4988 36.1901C48.5596 37.064 50.6336 38.044 52.7077 39.1562C55.0195 40.3877 57.2388 41.7251 59.326 43.1287C59.577 45.6181 59.7091 48.2002 59.7091 50.8485C59.7091 53.4968 59.577 56.079 59.326 58.5684C57.2387 59.9719 55.0194 61.3094 52.7077 62.5408C50.6337 63.6399 48.5597 64.633 46.4988 65.5069C44.438 64.633 42.3641 63.6531 40.29 62.5408C37.9782 61.3094 35.7589 59.9852 33.6717 58.5816C33.4207 56.0656 33.3018 53.4836 33.3018 50.8485H33.2886ZM53.9498 36.8256C52.6023 36.1106 51.2681 35.4485 49.9471 34.8262C52.4966 33.886 55.0198 33.1445 57.4505 32.6016C58.045 34.8129 58.5337 37.1964 58.9168 39.7123C57.3184 38.7191 55.6671 37.7525 53.963 36.8389L53.9498 36.8256ZM46.4992 17.7443C50.5548 17.7443 54.2404 22.5907 56.6844 30.046C53.3951 30.8008 49.9604 31.8998 46.4992 33.3167C42.9721 31.8734 39.5374 30.7743 36.314 30.0328C38.7579 22.5911 42.4436 17.7443 46.4992 17.7443ZM35.5481 32.5884C37.9391 33.1313 40.4623 33.886 43.0515 34.8394C41.7173 35.4617 40.383 36.1106 39.0488 36.8256C37.3315 37.7393 35.6801 38.706 34.0949 39.699C34.4648 37.1831 34.9667 34.7997 35.5613 32.5884H35.5481ZM30.8584 56.5951C28.3881 54.7679 26.1291 52.8345 24.1608 50.8616C26.1027 48.9151 28.3484 46.9818 30.8584 45.128C30.7263 46.9818 30.6603 48.8886 30.6603 50.8484C30.6603 52.8081 30.7395 54.7149 30.8716 56.5951H30.8584ZM17.3447 66.3934C16.5917 64.9766 16.5256 63.2155 17.1597 61.1366C17.9523 58.5545 19.7489 55.6811 22.3249 52.7944C24.8745 55.35 27.8601 57.7996 31.176 60.0905C31.5591 63.4539 32.1668 66.6715 32.9594 69.6379C25.2446 70.9753 19.247 69.9822 17.3447 66.407L17.3447 66.3934ZM35.5617 69.1079C34.954 66.8701 34.4652 64.4999 34.0953 62.0105C35.6937 63.0036 37.3451 63.9702 39.0492 64.8839C40.3834 65.5989 41.7176 66.2478 43.0519 66.8701C40.4627 67.8103 37.9528 68.5651 35.5617 69.1079ZM49.9479 66.8569C51.269 66.2346 52.6032 65.5857 53.9506 64.8706C55.6679 63.957 57.3193 62.9903 58.9045 61.9973C58.5346 64.5132 58.0327 66.8966 57.4381 69.1079C55.0471 68.565 52.5239 67.8103 49.9479 66.8701V66.8569ZM75.6548 66.3935C73.7526 69.9687 67.7683 70.9618 60.0663 69.6244C60.8589 66.698 61.4534 63.4803 61.8497 60.0507C65.1919 57.7334 68.1775 55.2705 70.6746 52.7678C73.2506 55.6677 75.0604 58.5279 75.8398 61.1232C76.4739 63.2021 76.4079 64.9765 75.6549 66.3801L75.6548 66.3935Z" fill="black"/>
</svg>
